<svg width="281" height="103" viewBox="0 0 281 103" fill="none" xmlns="http://www.w3.org/2000/svg">
<path d="M9.87075 101.569V2.575L9.72877 2.28889H0.5V1.43055H24.0689V101.569H9.87075Z" fill="white"/>
<path d="M34.0508 25.75C34.0508 21.2676 34.666 17.4051 35.8965 14.1625C37.1271 10.9199 38.8308 8.24954 41.0079 6.15139C43.2796 4.05324 45.9299 2.52732 48.9588 1.57361C51.9877 0.524536 55.2533 0 58.7555 0C62.3524 0 65.6653 0.524536 68.6942 1.57361C71.8178 2.52732 74.5154 4.10093 76.7871 6.29445C79.0588 8.39259 80.8099 11.063 82.0404 14.3056C83.3656 17.4528 84.0281 21.2676 84.0281 25.75V77.25C84.0281 81.637 83.3656 85.4519 82.0404 88.6945C80.8099 91.937 79.0588 94.6551 76.7871 96.8486C74.5154 98.9468 71.8178 100.52 68.6942 101.569C65.6653 102.523 62.3524 103 58.7555 103C55.2533 103 51.9877 102.523 48.9588 101.569C45.9299 100.52 43.2796 98.9468 41.0079 96.8486C38.8308 94.7505 37.1271 92.0801 35.8965 88.8375C34.666 85.5949 34.0508 81.7324 34.0508 77.25V25.75ZM48.2489 89.8389C48.2489 92.1278 48.5329 94.0829 49.1008 95.7042C49.7634 97.2301 50.5679 98.4699 51.5145 99.4236C52.5557 100.377 53.6915 101.093 54.922 101.569C56.2472 101.951 57.6197 102.142 59.0395 102.142C60.3646 102.142 61.6898 101.951 63.0149 101.569C64.3401 101.093 65.4759 100.377 66.4225 99.4236C67.4637 98.4699 68.2682 97.2301 68.8362 95.7042C69.4987 94.0829 69.83 92.1278 69.83 89.8389V13.1611C69.83 10.8722 69.4987 8.96482 68.8362 7.43889C68.2682 5.81759 67.4637 4.53009 66.4225 3.57639C65.4759 2.62268 64.3401 1.95509 63.0149 1.57361C61.6898 1.09676 60.3646 0.858331 59.0395 0.858331C57.6197 0.858331 56.2472 1.09676 54.922 1.57361C53.6915 1.95509 52.5557 2.62268 51.5145 3.57639C50.5679 4.53009 49.7634 5.81759 49.1008 7.43889C48.5329 8.96482 48.2489 10.8722 48.2489 13.1611V89.8389Z" fill="white"/>
<path d="M91.8826 93.8444C91.8826 91.2694 92.5452 89.2667 93.8703 87.8361C95.1955 86.3102 97.1832 85.5472 99.8335 85.5472C102.484 85.5472 104.472 86.3102 105.797 87.8361C107.122 89.2667 107.784 91.3171 107.784 93.9875C107.784 96.5625 107.122 98.613 105.797 100.139C104.472 101.569 102.484 102.285 99.8335 102.285C97.1832 102.285 95.1955 101.569 93.8703 100.139C92.5452 98.613 91.8826 96.5148 91.8826 93.8444Z" fill="white"/>
<path d="M115.995 25.75C115.995 21.2676 116.61 17.4051 117.841 14.1625C119.071 10.9199 120.775 8.24954 122.952 6.15139C125.224 4.05324 127.874 2.52732 130.903 1.57361C133.932 0.524536 137.197 0 140.7 0C144.297 0 147.609 0.524536 150.638 1.57361C153.762 2.52732 156.46 4.10093 158.731 6.29445C161.003 8.39259 162.754 11.063 163.985 14.3056C165.31 17.4528 165.972 21.2676 165.972 25.75V77.25C165.972 81.637 165.31 85.4519 163.985 88.6945C162.754 91.937 161.003 94.6551 158.731 96.8486C156.46 98.9468 153.762 100.52 150.638 101.569C147.609 102.523 144.297 103 140.7 103C137.197 103 133.932 102.523 130.903 101.569C127.874 100.52 125.224 98.9468 122.952 96.8486C120.775 94.7505 119.071 92.0801 117.841 88.8375C116.61 85.5949 115.995 81.7324 115.995 77.25V25.75ZM130.193 89.8389C130.193 92.1278 130.477 94.0829 131.045 95.7042C131.708 97.2301 132.512 98.4699 133.459 99.4236C134.5 100.377 135.636 101.093 136.866 101.569C138.191 101.951 139.564 102.142 140.984 102.142C142.309 102.142 143.634 101.951 144.959 101.569C146.284 101.093 147.42 100.377 148.367 99.4236C149.408 98.4699 150.212 97.2301 150.78 95.7042C151.443 94.0829 151.774 92.1278 151.774 89.8389V13.1611C151.774 10.8722 151.443 8.96482 150.78 7.43889C150.212 5.81759 149.408 4.53009 148.367 3.57639C147.42 2.62268 146.284 1.95509 144.959 1.57361C143.634 1.09676 142.309 0.858331 140.984 0.858331C139.564 0.858331 138.191 1.09676 136.866 1.57361C135.636 1.95509 134.5 2.62268 133.459 3.57639C132.512 4.53009 131.708 5.81759 131.045 7.43889C130.477 8.96482 130.193 10.8722 130.193 13.1611V89.8389Z" fill="white"/>
<path d="M173.259 25.75C173.259 21.2676 173.874 17.4051 175.105 14.1625C176.335 10.9199 178.039 8.24954 180.216 6.15139C182.488 4.05324 185.138 2.52732 188.167 1.57361C191.196 0.524536 194.461 0 197.964 0C201.56 0 204.873 0.524536 207.902 1.57361C211.026 2.52732 213.723 4.10093 215.995 6.29445C218.267 8.39259 220.018 11.063 221.248 14.3056C222.574 17.4528 223.236 21.2676 223.236 25.75V77.25C223.236 81.637 222.574 85.4519 221.248 88.6945C220.018 91.937 218.267 94.6551 215.995 96.8486C213.723 98.9468 211.026 100.52 207.902 101.569C204.873 102.523 201.56 103 197.964 103C194.461 103 191.196 102.523 188.167 101.569C185.138 100.52 182.488 98.9468 180.216 96.8486C178.039 94.7505 176.335 92.0801 175.105 88.8375C173.874 85.5949 173.259 81.7324 173.259 77.25V25.75ZM187.457 89.8389C187.457 92.1278 187.741 94.0829 188.309 95.7042C188.971 97.2301 189.776 98.4699 190.722 99.4236C191.764 100.377 192.9 101.093 194.13 101.569C195.455 101.951 196.828 102.142 198.247 102.142C199.573 102.142 200.898 101.951 202.223 101.569C203.548 101.093 204.684 100.377 205.631 99.4236C206.672 98.4699 207.476 97.2301 208.044 95.7042C208.707 94.0829 209.038 92.1278 209.038 89.8389V13.1611C209.038 10.8722 208.707 8.96482 208.044 7.43889C207.476 5.81759 206.672 4.53009 205.631 3.57639C204.684 2.62268 203.548 1.95509 202.223 1.57361C200.898 1.09676 199.573 0.858331 198.247 0.858331C196.828 0.858331 195.455 1.09676 194.13 1.57361C192.9 1.95509 191.764 2.62268 190.722 3.57639C189.776 4.53009 188.971 5.81759 188.309 7.43889C187.741 8.96482 187.457 10.8722 187.457 13.1611V89.8389Z" fill="white"/>
<path d="M230.523 25.75C230.523 21.2676 231.138 17.4051 232.368 14.1625C233.599 10.9199 235.303 8.24954 237.48 6.15139C239.751 4.05324 242.402 2.52732 245.431 1.57361C248.46 0.524536 251.725 0 255.227 0C258.824 0 262.137 0.524536 265.166 1.57361C268.29 2.52732 270.987 4.10093 273.259 6.29445C275.531 8.39259 277.282 11.063 278.512 14.3056C279.837 17.4528 280.5 21.2676 280.5 25.75V77.25C280.5 81.637 279.837 85.4519 278.512 88.6945C277.282 91.937 275.531 94.6551 273.259 96.8486C270.987 98.9468 268.29 100.52 265.166 101.569C262.137 102.523 258.824 103 255.227 103C251.725 103 248.46 102.523 245.431 101.569C242.402 100.52 239.751 98.9468 237.48 96.8486C235.303 94.7505 233.599 92.0801 232.368 88.8375C231.138 85.5949 230.523 81.7324 230.523 77.25V25.75ZM244.721 89.8389C244.721 92.1278 245.005 94.0829 245.573 95.7042C246.235 97.2301 247.04 98.4699 247.986 99.4236C249.028 100.377 250.163 101.093 251.394 101.569C252.719 101.951 254.092 102.142 255.511 102.142C256.836 102.142 258.162 101.951 259.487 101.569C260.812 101.093 261.948 100.377 262.894 99.4236C263.936 98.4699 264.74 97.2301 265.308 95.7042C265.971 94.0829 266.302 92.1278 266.302 89.8389V13.1611C266.302 10.8722 265.971 8.96482 265.308 7.43889C264.74 5.81759 263.936 4.53009 262.894 3.57639C261.948 2.62268 260.812 1.95509 259.487 1.57361C258.162 1.09676 256.836 0.858331 255.511 0.858331C254.092 0.858331 252.719 1.09676 251.394 1.57361C250.163 1.95509 249.028 2.62268 247.986 3.57639C247.04 4.53009 246.235 5.81759 245.573 7.43889C245.005 8.96482 244.721 10.8722 244.721 13.1611V89.8389Z" fill="white"/>
</svg>
