<svg width="930" height="866" viewBox="0 0 930 866" fill="none" xmlns="http://www.w3.org/2000/svg">
<g clip-path="url(#clip0_1_267)">
<g opacity="0.8">
<path d="M903.63 865.31H26.04C26.04 851.21 14.61 839.77 0.5 839.77V26.04C14.6 26.04 26.04 14.61 26.04 0.5H903.63C903.63 14.6 915.06 26.04 929.17 26.04V839.78C915.07 839.78 903.63 851.21 903.63 865.32V865.31Z" fill="#ECCEA6"/>
<path d="M903.63 865.31H26.04C26.04 851.21 14.61 839.77 0.5 839.77V26.04C14.6 26.04 26.04 14.61 26.04 0.5H903.63C903.63 14.6 915.06 26.04 929.17 26.04V839.78C915.07 839.78 903.63 851.21 903.63 865.32V865.31Z" stroke="#ECCEA6" stroke-miterlimit="10"/>
<path d="M29.16 836.65C25.3 832.79 20.66 829.71 15.5 827.65V38.17C20.67 36.11 25.31 33.02 29.16 29.17C33.01 25.32 36.1 20.67 38.16 15.51H891.49C893.55 20.68 896.64 25.32 900.49 29.17C904.34 33.02 908.99 36.11 914.15 38.17V827.65C908.98 829.71 904.34 832.8 900.49 836.65C896.64 840.5 893.55 845.15 891.49 850.31H38.17C36.11 845.14 33.02 840.5 29.17 836.65H29.16Z" stroke="#85482C" stroke-miterlimit="10"/>
</g>
</g>
<defs>
<clipPath id="clip0_1_267">
<rect width="929.67" height="865.81" fill="white"/>
</clipPath>
</defs>
</svg>
