<svg width="99" height="99" viewBox="0 0 99 99" fill="none" xmlns="http://www.w3.org/2000/svg">
<g clip-path="url(#clip0_1_209)">
<path d="M47.3399 13.44C47.3399 15.1 48.1399 16.14 49.3299 16.76C51.5699 7.06 73.0899 4.32 78.6099 4.32L78.6099 4.28C73.0699 4.28 47.3399 4.49 47.3399 13.44Z" fill="#E9CC61"/>
<path d="M17.8499 7.3C18.8199 7.3 19.6099 6.51 19.6099 5.54C19.6099 4.57 18.8199 3.78 17.8499 3.78C16.8799 3.78 16.0899 4.57 16.0899 5.54C16.0899 6.51 16.8799 7.3 17.8499 7.3Z" fill="#E9CC61"/>
<path d="M4.27995 78.6L4.31995 78.6C4.31995 73.08 7.05995 51.56 16.7599 49.32C16.1499 48.14 15.0999 47.33 13.4399 47.33C4.47995 47.33 4.27995 73.06 4.27995 78.6Z" fill="#E9CC61"/>
<path d="M7.29993 17.83C7.29993 16.86 6.50993 16.07 5.53993 16.07C4.56993 16.07 3.77993 16.86 3.77993 17.83C3.77993 18.8 4.56993 19.59 5.53993 19.59C6.50993 19.59 7.29993 18.8 7.29993 17.83Z" fill="#E9CC61"/>
<path d="M1.89995 66.01C1.89995 56.59 3.58995 46.4 7.51995 40.95C7.51995 39.43 6.73995 39.03 5.08995 38.2C7.99995 34.65 6.30995 30.77 3.55995 29.82C6.02995 25.09 10.9799 21.86 16.67 21.86C19.13 21.86 21.3699 22.82 23.03 24.38L23.21 24.56C23.21 24.56 23.25 24.6 23.2699 24.62L23.4399 24.79C24.9999 26.46 25.96 28.69 25.96 31.15C25.96 34.31 23.39 36.89 20.22 36.89C18.34 36.89 16.81 35.36 16.81 33.48C16.81 32.54 17.5 31.76 18.4 31.61C17.93 31.85 17.61 32.34 17.61 32.91C17.61 33.87 18.39 34.65 19.35 34.65C20.54 34.65 21.5099 33.68 21.5099 32.49C21.5099 30.94 20.25 29.69 18.71 29.69C16.62 29.69 14.92 31.39 14.92 33.48C14.92 36.41 17.2999 38.79 20.2299 38.79C24.4399 38.79 27.8699 35.36 27.8699 31.15C27.8699 30.42 27.7999 29.7 27.6599 29.01L30.6899 32.04C32.6999 34.68 33.92 37.12 33.9399 38.91C36.1999 39.16 38.85 40.37 43.07 43.07C43.07 43.07 43.07 43.07 43.07 43.06C43.07 43.06 43.08 43.06 43.0899 43.07C40.3899 38.85 39.1799 36.21 38.9299 33.94C37.1399 33.92 34.6999 32.7 32.06 30.69L29.03 27.66C29.72 27.79 30.4399 27.87 31.17 27.87C35.38 27.87 38.81 24.44 38.81 20.23C38.81 17.3 36.43 14.92 33.5 14.92C31.41 14.92 29.71 16.62 29.71 18.71C29.71 20.26 30.9699 21.51 32.5099 21.51C33.7 21.51 34.67 20.54 34.67 19.35C34.67 18.39 33.89 17.61 32.93 17.61C32.37 17.61 31.88 17.93 31.63 18.4C31.78 17.5 32.56 16.81 33.5 16.81C35.38 16.81 36.91 18.34 36.91 20.22C36.91 23.38 34.3399 25.96 31.17 25.96C28.71 25.96 26.47 25 24.81 23.44L24.63 23.26C24.63 23.26 24.5899 23.22 24.57 23.2L24.4 23.03C22.84 21.36 21.88 19.13 21.88 16.67C21.88 10.98 25.1199 6.03 29.84 3.56C30.7899 6.31 34.67 7.99 38.22 5.09C39.04 6.74 39.45 7.52 40.97 7.52C46.42 3.59 56.6 1.9 66.03 1.9L98.42 1.9L98.42 3.8147e-06L0.00994873 -4.86941e-07L0.00994713 36.63L0.00994443 98.41L1.90995 98.41L1.90995 66.01L1.89995 66.01ZM1.89996 1.9L28.91 1.9C23.59 4.69 19.96 10.27 19.96 16.68C19.96 17.41 20.03 18.13 20.17 18.82L18.95 17.6L16.88 15.53L15.85 14.5C15.68 14.33 15.5 14.16 15.3399 13.98C15.1799 13.8 15.02 13.61 14.82 13.46C14.8 13.45 14.7799 13.43 14.7599 13.42C13.7599 12.66 13.24 11.45 13.31 10.2C13.31 10.14 13.31 10.08 13.31 10.02C13.31 8.2 11.8299 6.72 10.0099 6.72C8.18995 6.72 6.70995 8.2 6.70995 10.02C6.70995 11.84 8.18995 13.32 10.0099 13.32C10.0699 13.32 10.13 13.32 10.18 13.32C11.43 13.25 12.64 13.77 13.4 14.77C13.41 14.79 13.4299 14.81 13.4399 14.83C13.5899 15.02 13.78 15.18 13.96 15.35C14.14 15.51 14.31 15.69 14.4799 15.86L15.5099 16.89L17.58 18.96L18.7999 20.18C18.1099 20.05 17.39 19.97 16.6599 19.97C10.25 19.97 4.67995 23.6 1.87995 28.92L1.87995 1.9L1.89996 1.9Z" fill="#E9CC61"/>
</g>
<defs>
<clipPath id="clip0_1_209">
<rect width="98.41" height="98.42" fill="white" transform="translate(98.42 3.8147e-06) rotate(90)"/>
</clipPath>
</defs>
</svg>
