<svg width="219" height="52" viewBox="0 0 219 52" fill="none" xmlns="http://www.w3.org/2000/svg">
<path d="M218.01 46.2035L214.43 45.3341C208.79 43.9619 205.69 43.0925 203.4 41.8041L203.19 41.6889L202.99 41.8146C199.28 44.119 193.38 45.3236 189.48 45.3236H187.44C187.45 45.2503 187.46 45.1874 187.46 45.1036C187.46 44.7894 187.32 44.517 187.1 44.339C188.23 43.2706 188.93 41.8146 188.93 40.2225C188.93 38.5256 187.61 37.1429 185.99 37.1429C184.86 37.1429 183.93 38.1066 183.93 39.2902C183.93 39.573 184.03 39.8559 184.19 40.0863C185.17 41.4585 186.52 40.7357 186.52 39.6883C186.52 39.4264 186.41 39.1855 186.21 39.0179C185.62 38.4942 184.94 38.9341 184.94 39.5311C184.94 39.6359 184.97 39.7406 185.01 39.8349C184.86 39.7092 184.77 39.5207 184.77 39.3112C184.77 38.6094 185.32 38.0437 185.98 38.0437C187.14 38.0437 188.08 39.0284 188.08 40.2434C188.08 43.0506 185.49 45.3341 182.31 45.3341H128.33C121.83 45.3341 116.54 39.793 116.54 32.9845C116.54 28.2395 120.22 24.3849 124.75 24.3849C127.89 24.3849 130.44 27.0559 130.44 30.3449C130.44 32.597 128.69 34.43 126.54 34.43C125.09 34.43 123.9 33.194 123.9 31.6647C123.9 30.6592 124.68 29.8421 125.64 29.8421C126.21 29.8421 126.67 30.2925 126.74 30.8686C126.58 30.5439 126.26 30.3135 125.88 30.3135C125.34 30.3135 124.91 30.7744 124.91 31.3295C124.91 31.34 124.91 31.3505 124.91 31.3714C124.8 31.6752 124.81 32.0209 125.07 32.2094C126.28 33.1207 127.6 32.2199 127.6 31.0048C127.6 29.884 126.73 28.9623 125.65 28.9623C124.23 28.9623 123.07 30.1773 123.07 31.6647C123.07 33.6758 124.63 35.3099 126.55 35.3099C129.16 35.3099 131.29 33.0788 131.29 30.3449C131.29 26.5741 128.36 23.505 124.76 23.505C119.77 23.505 115.71 27.7577 115.71 32.9845C115.71 38.2113 118.76 42.9459 123.13 45.0303C118.02 43.8676 114.06 39.4578 113.32 33.9796C114.26 33.7701 114.83 33.4978 114.83 33.194C114.83 32.8902 114.21 32.597 113.2 32.377C113.2 32.2932 113.2 32.2094 113.2 32.1151C113.2 25.3066 118.48 19.7656 124.97 19.7446C125.03 19.7446 125.1 19.7446 125.16 19.7446C125.21 19.7446 125.26 19.7446 125.31 19.7446C131.26 19.9122 136.06 25.0343 136.06 31.3191C136.06 34.65 134.63 37.7505 132.13 39.8139L131.18 40.5995H141.07C140.91 40.3272 140.79 40.0339 140.71 39.7197C140.59 39.2064 140.58 38.6617 140.79 38.0647C141.22 36.8496 142.3 36.0117 143.54 36.0431C145.07 36.085 146.3 37.3943 146.3 39.0179C146.3 39.2588 146.27 39.4997 146.22 39.7197C146.15 40.0339 146.03 40.3272 145.86 40.5995H176.27L174.19 39.7511C173.53 39.4788 172.46 38.8712 172.19 38.2951C172.5 37.6876 172.67 36.9963 172.67 36.2316C172.67 34.3776 171.23 32.8798 169.47 32.8798C168.1 32.8798 166.99 34.0424 166.99 35.4775C166.99 36.5983 167.86 37.52 168.94 37.52C169.36 37.52 169.77 37.3105 170.05 36.9858C171 35.8755 170.26 34.5767 169.23 34.5767C168.66 34.5767 168.19 35.069 168.19 35.666C168.19 35.687 168.19 35.7079 168.19 35.7289V35.7498C168.19 36.1164 168.4 36.4411 168.69 36.6087C168.2 36.4935 167.83 36.0326 167.83 35.4775C167.83 34.5243 168.57 33.7596 169.47 33.7596C170.77 33.7596 171.83 34.8699 171.83 36.2316C171.83 38.2847 170.37 39.6778 168.18 39.7197C155.22 39.6149 148.19 33.3197 141.99 27.7472C139.58 25.579 137.23 23.4736 134.67 21.8605C137.23 22.8346 139.8 24.0392 142.33 25.2333C148.11 27.9462 154.08 30.7534 159.83 30.7534C163.6 30.7534 166.44 28.1871 166.44 24.7829C166.44 23.086 165.12 21.7034 163.5 21.7034C162.37 21.7034 161.44 22.667 161.44 23.8507C161.44 24.1335 161.54 24.4163 161.7 24.6467C162.68 26.0189 164.03 25.2962 164.03 24.2382C164.03 23.9764 163.91 23.7354 163.72 23.5678C163.13 23.0441 162.45 23.4841 162.45 24.0811C162.45 24.1859 162.48 24.2906 162.52 24.3849C162.37 24.2592 162.28 24.0706 162.28 23.8611C162.28 23.1593 162.83 22.5937 163.49 22.5937C164.65 22.5937 165.59 23.5783 165.59 24.7934C165.59 27.6948 163.11 29.884 159.82 29.884C154.25 29.884 148.36 27.1187 142.66 24.4477C136.95 21.7662 131.06 19.0009 125.33 18.8962C125.22 18.8962 125.11 18.8962 125 18.8962H124.92C124.35 18.8962 123.8 18.9486 123.25 19.0219C123.33 18.8019 123.37 18.5505 123.37 18.2887C123.37 17.4297 122.86 16.3823 121.76 16.0995L121.31 15.9842L121.25 16.4661C121.09 17.6916 119.41 19.3152 118.07 20.614C117.2 21.452 116.45 22.1747 116.07 22.7927C113.79 25.1914 112.37 28.5014 112.37 32.1465C112.37 32.1884 112.37 32.2199 112.37 32.2618C111.54 32.1465 110.54 32.0627 109.46 32.0523C109.44 31.5809 109.43 31.141 109.43 30.7744C109.43 27.2759 111.92 21.2739 114.02 19.6922L114.42 19.3885L114.08 19.0219C112.48 17.3145 110.02 11.1659 109.43 9.00815C109.43 8.98721 109.42 8.96626 109.41 8.95578C109.27 8.42158 109.33 7.85595 109.56 7.36364L110.98 4.44123L109 0L107.02 4.44123L108.44 7.36364C108.68 7.85595 108.73 8.42158 108.59 8.95578C108.59 8.97673 108.58 8.99768 108.57 9.00815C107.99 11.1659 105.53 17.3145 103.92 19.0219L103.58 19.3885L103.98 19.6922C106.08 21.2739 108.57 27.2759 108.57 30.7744C108.57 31.141 108.57 31.5704 108.54 32.0523C107.46 32.0732 106.47 32.1465 105.63 32.2618C105.63 32.2199 105.63 32.1884 105.63 32.1465C105.63 28.5014 104.22 25.1914 101.93 22.7927C101.54 22.1747 100.79 21.452 99.93 20.614C98.58 19.3152 96.9 17.6916 96.75 16.4661L96.69 15.9842L96.24 16.0995C95.14 16.3823 94.64 17.4297 94.63 18.2887C94.63 18.5505 94.67 18.8019 94.75 19.0219C94.2 18.9381 93.65 18.8962 93.08 18.8962C93.08 18.8962 93.05 18.8962 93.04 18.8962C93.03 18.8962 93.02 18.8962 93 18.8962C92.91 18.8962 92.83 18.8962 92.74 18.8962C92.72 18.8962 92.69 18.8962 92.67 18.8962C86.95 19.0009 81.05 21.7662 75.35 24.4477C69.65 27.1187 63.76 29.884 58.19 29.884C54.9 29.884 52.42 27.6948 52.42 24.7934C52.42 23.5783 53.36 22.5937 54.52 22.5937C55.19 22.5937 55.73 23.1698 55.73 23.8611C55.73 24.0706 55.63 24.2696 55.49 24.3849C55.58 24.2068 55.59 23.9764 55.49 23.7459C55.35 23.4736 55.09 23.3165 54.8 23.3374C54.09 23.3898 53.61 24.3534 54.42 25.1181C54.61 25.2962 54.85 25.4009 55.11 25.4009C55.93 25.4009 56.59 24.7096 56.59 23.8507C56.59 22.667 55.67 21.6929 54.53 21.6929C52.91 21.6929 51.59 23.0755 51.59 24.7724C51.59 28.1767 54.43 30.743 58.2 30.743C63.95 30.743 69.92 27.9358 75.7 25.2228C78.23 24.0392 80.8 22.8346 83.36 21.85C80.79 23.4631 78.45 25.5685 76.04 27.7367C69.84 33.3092 62.81 39.6045 49.85 39.7092C47.66 39.6673 46.2 38.2742 46.2 36.2212C46.2 34.8595 47.26 33.7492 48.56 33.7492C49.47 33.7492 50.2 34.5243 50.2 35.467C50.2 36.0221 49.83 36.483 49.34 36.5983C49.6 36.4411 49.79 36.1688 49.83 35.8441C49.88 35.6032 49.83 35.3204 49.66 35.0585C49.47 34.7652 49.15 34.5767 48.81 34.5767C47.78 34.5767 47.04 35.865 47.98 36.9753C48.26 37.3105 48.67 37.52 49.1 37.52C50.17 37.52 51.05 36.6087 51.05 35.4775C51.05 34.0424 49.94 32.8798 48.57 32.8798C46.8 32.8798 45.37 34.3881 45.37 36.2316C45.37 36.9963 45.54 37.6981 45.85 38.2951C45.57 38.8712 44.51 39.4788 43.85 39.7511L41.77 40.5995H72.18C72.02 40.3272 71.9 40.0339 71.82 39.7197C71.7 39.2169 71.69 38.6617 71.9 38.0752C72.33 36.8601 73.4 36.0221 74.64 36.0536C76.17 36.0955 77.41 37.4048 77.41 39.0284C77.41 39.2693 77.38 39.5102 77.33 39.7302C77.26 40.0444 77.14 40.3377 76.97 40.61H86.86L85.91 39.8244C83.41 37.7505 81.98 34.6604 81.98 31.3295C81.98 25.0552 86.77 19.9332 92.72 19.7551C92.77 19.7551 92.82 19.7551 92.87 19.7551C92.93 19.7551 93 19.7551 93.06 19.7551C99.55 19.776 104.83 25.3171 104.83 32.1256C104.83 32.2094 104.83 32.2932 104.83 32.3875C103.82 32.597 103.2 32.8798 103.2 33.2045C103.2 33.5292 103.77 33.7806 104.71 33.9901C103.97 39.4683 100.01 43.8781 94.9 45.0408C99.27 42.9563 102.32 38.3475 102.32 32.995C102.32 27.6425 98.26 23.5155 93.27 23.5155C89.67 23.5155 86.74 26.5845 86.74 30.3554C86.74 33.0893 88.87 35.3204 91.48 35.3204C93.4 35.3204 94.96 33.6863 94.96 31.6752C94.96 30.1878 93.8 28.9727 92.38 28.9727C91.31 28.9727 90.43 29.884 90.43 31.0153C90.43 31.4028 90.58 31.7695 90.84 32.0418C91.86 33.1416 93.1 32.4084 93.12 31.361C93.12 31.361 93.12 31.3505 93.12 31.34C93.12 30.7744 92.68 30.324 92.15 30.324C91.77 30.324 91.45 30.5544 91.29 30.8791C91.36 30.303 91.82 29.8526 92.39 29.8526C93.35 29.8526 94.13 30.6696 94.13 31.6752C94.13 33.194 92.95 34.4405 91.49 34.4405C89.34 34.4405 87.59 32.6074 87.59 30.3554C87.59 27.0664 90.14 24.3953 93.28 24.3953C97.81 24.3953 101.49 28.25 101.49 32.995C101.49 39.8035 96.2 45.3445 89.7 45.3445H35.72C32.54 45.3445 29.95 43.0611 29.95 40.2539C29.95 39.0388 30.89 38.0542 32.05 38.0542C32.72 38.0542 33.26 38.6303 33.26 39.3216C33.26 39.5311 33.16 39.7302 33.02 39.8454C33.11 39.6673 33.12 39.4369 33.02 39.2064C32.88 38.9341 32.62 38.777 32.33 38.7979C31.62 38.8503 31.14 39.8139 31.95 40.5786C32.14 40.7567 32.38 40.8614 32.64 40.8614C33.46 40.8614 34.12 40.1701 34.12 39.3112C34.12 38.1275 33.2 37.1534 32.06 37.1534C30.44 37.1534 29.12 38.5361 29.12 40.2329C29.12 41.8251 29.82 43.281 30.95 44.3495C30.74 44.5275 30.59 44.7999 30.59 45.1141C30.59 45.1874 30.59 45.2607 30.61 45.3341H28.57C24.66 45.3341 18.77 44.1295 15.06 41.8251L14.86 41.6994L14.65 41.8146C12.35 43.0925 9.26004 43.9724 3.62004 45.3445L0.0400391 46.2139H90.09C89.94 46.7796 89.84 47.8689 90.93 48.7697C91.32 47.848 93.91 46.2139 95.66 46.2139H102.1C105.36 46.2139 108.14 49.7439 108.64 50.4142C108.69 50.4771 108.72 50.519 108.72 50.519L109.06 51.0113L109.4 50.519C109.4 50.519 109.43 50.4771 109.48 50.4038C109.98 49.7334 112.75 46.2035 116.02 46.2035H122.46C124.21 46.2035 126.8 47.8375 127.19 48.7593C128.28 47.8584 128.18 46.7691 128.03 46.2035H218.08H218.01ZM96.87 45.3236C101.41 43.5534 104.8 39.2902 105.51 34.1262C106.31 34.2519 107.28 34.3253 108.33 34.3567C108.25 34.9328 108.14 35.5298 108 36.1374C106.78 41.5318 102.16 45.3341 96.87 45.3341V45.3236ZM110.01 36.1269C109.87 35.5194 109.76 34.9118 109.68 34.3462C110.73 34.3253 111.7 34.2415 112.5 34.1158C113.21 39.2797 116.6 43.5429 121.14 45.3131C115.85 45.3131 111.23 41.5108 110.01 36.1164V36.1269Z" fill="#E9CC61"/>
</svg>
