<svg width="99" height="105" viewBox="0 0 99 105" fill="none" xmlns="http://www.w3.org/2000/svg">
<g clip-path="url(#clip0_1_198)">
<path d="M50.25 0L44.51 -2.50903e-07C44.51 1.39 43.39 2.51 42 2.51C40.61 2.51 39.49 1.39 39.49 -4.70335e-07L33.75 -7.21238e-07C33.75 18.61 18.61 33.75 -3.19928e-05 33.75L-3.22437e-05 39.49C-3.22437e-05 39.49 0.00996608 39.49 0.0199644 39.49C1.40996 39.49 2.52997 40.61 2.52997 42C2.52997 43.39 1.40996 44.51 0.0199642 44.51L-3.24632e-05 44.51L-3.27141e-05 50.25C27.71 50.25 50.25 27.71 50.25 0ZM11.54 43C11.32 43.06 11.1 43.09 10.89 43.09C9.77997 43.09 8.76997 42.35 8.46997 41.23C8.10997 39.89 8.90997 38.51 10.25 38.16C11.59 37.8 12.96 38.6 13.32 39.94C13.68 41.28 12.88 42.66 11.54 43.01L11.54 43ZM22.27 38.55C21.87 38.78 21.44 38.89 21.01 38.89C20.14 38.89 19.3 38.44 18.84 37.64C18.15 36.44 18.55 34.9 19.75 34.21C20.95 33.52 22.48 33.92 23.18 35.12C23.87 36.32 23.47 37.86 22.27 38.55ZM31.48 31.47C30.99 31.96 30.35 32.21 29.71 32.21C29.07 32.21 28.43 31.97 27.94 31.48C26.96 30.5 26.96 28.91 27.94 27.93C28.92 26.95 30.51 26.95 31.49 27.93C32.47 28.91 32.47 30.5 31.49 31.48L31.48 31.47ZM38.16 10.22C38.52 8.88 39.89 8.08 41.23 8.44C42.57 8.8 43.36 10.17 43.01 11.51C42.71 12.63 41.7 13.37 40.59 13.37C40.38 13.37 40.16 13.34 39.94 13.28C38.6 12.92 37.81 11.55 38.16 10.21L38.16 10.22ZM34.21 19.74C34.9 18.54 36.44 18.13 37.64 18.82C38.84 19.51 39.25 21.05 38.56 22.25C38.09 23.05 37.25 23.5 36.38 23.5C35.95 23.5 35.52 23.39 35.13 23.16C33.93 22.47 33.52 20.93 34.21 19.73L34.21 19.74Z" fill="#E9CC61"/>
<path d="M29.72 0L28.29 -6.25073e-08C28.29 15.6 15.6 28.29 -3.17542e-05 28.29L-3.18167e-05 29.72C16.39 29.72 29.72 16.39 29.72 0Z" fill="#E9CC61"/>
<path d="M13.33 0L-4.57764e-05 -5.82673e-07L-4.6359e-05 13.33C7.35995 13.33 13.33 7.36 13.33 0Z" fill="#E9CC61"/>
<path d="M95.79 26.3L59.38 14.68C56.27 13.69 54.36 10.59 54.79 7.36C54.79 7.32 54.8 7.28 54.81 7.25C55.24 3.99 57.92 1.5 61.2 1.38L98.46 0L53.85 -1.94997e-06C53.85 29.69 29.69 53.85 -4.05008e-05 53.85L-4.27275e-05 104.79L1.40996 60.89C1.50995 57.8 3.83996 55.24 6.90996 54.85C6.94996 54.85 6.97996 54.85 7.01996 54.84C10.08 54.45 12.97 56.34 13.85 59.29L25.62 99.05L16.65 58.93C15.93 55.72 17.67 52.49 20.72 51.25C20.76 51.24 20.79 51.22 20.83 51.21C23.89 49.96 27.41 51.07 29.13 53.89L49.16 86.69L31.51 52.5C29.99 49.56 30.84 45.98 33.47 43.98C33.5 43.96 33.53 43.93 33.56 43.91C36.21 41.88 39.93 42.02 42.36 44.3L73.86 73.82L44.09 42.05C41.96 39.77 41.8 36.29 43.71 33.83C43.73 33.8 43.75 33.77 43.78 33.74C45.68 31.28 49.09 30.57 51.82 32.05L87.89 51.68L53.51 29.86C50.71 28.08 49.65 24.54 50.94 21.48C50.96 21.44 50.97 21.41 50.99 21.37C52.28 18.3 55.57 16.59 58.81 17.37L95.79 26.3Z" fill="#E9CC61"/>
</g>
<defs>
<clipPath id="clip0_1_198">
<rect width="104.79" height="98.46" fill="white" transform="translate(98.46) rotate(90)"/>
</clipPath>
</defs>
</svg>
