<svg width="139" height="139" viewBox="0 0 139 139" fill="none" xmlns="http://www.w3.org/2000/svg">
<g id="Group">
<path id="Vector" d="M69.506 11.9294C84.1268 26.7913 104.412 21.1073 91.8967 39.4631C87.2361 46.2748 68.3458 41.0927 57.2058 54.5271C58.4052 61.3127 58.8159 66.5796 62.1598 70.1256C63.5873 49.9316 89.876 59.6505 100.279 46.6268C104.223 41.8097 108.29 33.251 106.407 26.2633C102.417 11.623 78.2537 11.434 74.7729 0.00723336C52.9884 0.00723336 75.4313 -0.683717 49.6641 11.4405C41.1054 15.4689 32.5468 19.7188 32.1035 29.4247C35.7669 29.7898 39.6518 31.1717 43.8822 33.6291C39.6127 22.7499 58.0728 23.5517 69.5126 11.9294H69.506Z" fill="#CD7F32"/>
<path id="Vector_2" d="M127.565 49.6643C123.531 41.0992 119.281 32.547 109.581 32.1038C109.216 35.7606 107.821 39.6716 105.37 43.8825C116.269 39.5869 115.428 58.06 127.077 69.5063C112.488 83.8403 117.899 104.464 99.5428 91.897C92.7898 87.2755 97.9393 68.3721 84.4788 57.2061C78.4428 58.3273 72.6088 58.6597 68.8868 62.1601C89.3937 63.5681 79.062 89.6416 92.3791 100.28C95.4558 102.796 101.713 106.185 106.791 106.798C126.711 109.347 126.47 78.5864 138.992 74.7732C138.992 52.8909 139.703 75.4511 127.565 49.6643Z" fill="#CD7F32"/>
<path id="Vector_3" d="M69.506 127.083C55.1851 112.521 34.5609 117.931 47.1088 99.5496C51.7825 92.7183 70.6467 97.9461 81.7997 84.4921C80.6133 77.7912 80.1701 72.3809 76.8457 68.9001C76.6241 72.1006 75.2356 75.2555 73.1041 77.7195C65.1647 86.8974 47.5651 81.3176 38.7261 92.3859C34.7825 97.203 30.715 105.762 32.5988 112.749C36.5881 127.409 60.7583 127.579 64.2326 139.005C85.652 139.005 64.1022 139.436 89.3414 127.579C97.9131 123.544 106.459 119.3 106.902 109.588C103.239 109.223 99.3472 107.841 95.1232 105.384C99.4058 116.302 81.0044 115.389 69.4995 127.083H69.506Z" fill="#CD7F32"/>
<path id="Vector_4" d="M11.9292 69.5063C26.7911 54.8856 21.1071 34.6003 39.4629 47.1156C46.229 51.7437 41.1251 70.6992 54.5204 81.8065C61.5993 80.555 66.6055 80.1639 70.1189 76.8526C66.9118 76.6309 63.77 75.249 61.2995 73.1045C52.1607 65.2498 57.6818 47.5589 46.6136 38.72C41.8225 34.7959 33.2509 30.7219 26.2631 32.5992C11.6033 36.5884 11.4338 60.7521 0.00705775 64.2395C0.00705775 86.0565 -0.677372 63.6333 11.4338 89.3418C15.4752 97.9265 19.7252 106.459 29.418 106.902C29.7896 103.246 31.178 99.3475 33.6289 95.1301C22.7888 99.3801 23.4863 80.8679 11.9292 69.4998V69.5063Z" fill="#CD7F32"/>
</g>
</svg>
