<svg width="144" height="51" viewBox="0 0 144 51" fill="none" xmlns="http://www.w3.org/2000/svg">
<g clip-path="url(#clip0_1_24)">
<path d="M105.1 7.82764H93.6545L90.4295 30.3301L85.5845 7.82764H73.3745L68.532 30.3301L65.302 7.82764H53.242L61.417 43.5476H75.342L79.4795 23.2676L83.6145 43.5476H97.5395L103.592 17.0951C102.997 16.0051 102.655 14.7551 102.655 13.4276C102.655 11.2176 103.595 9.22514 105.097 7.82764H105.1Z" fill="#BF1E2D"/>
<path d="M115.905 19.895V43.5475H104.707V19.895H106.225C107.407 20.6475 108.805 21.08 110.305 21.08C111.805 21.08 113.205 20.645 114.387 19.895H115.905Z" fill="#BF1E2D"/>
<path d="M115.512 7.82764C117.015 9.22514 117.955 11.2176 117.955 13.4276C117.955 14.6001 117.692 15.7101 117.217 16.7051H123.272V43.5476H134.47V16.7051H143.955V7.82764H115.51H115.512Z" fill="#BF1E2D"/>
<path d="M115.905 13.4301C115.905 14.6526 115.512 15.7851 114.845 16.7076C113.827 18.1151 112.172 19.0301 110.302 19.0301C107.21 19.0301 104.705 16.5226 104.705 13.4301C104.705 10.3376 107.21 7.83008 110.302 7.83008C111.665 7.83008 112.912 8.31508 113.887 9.12758C115.12 10.1526 115.902 11.7001 115.902 13.4301H115.905Z" fill="#BF1E2D"/>
<path d="M24.5196 16.6726C24.6596 16.8001 24.8046 16.9176 24.9546 17.0376C25.0421 17.1076 25.1346 17.1776 25.2271 17.2451C25.5396 17.4776 25.8596 17.6926 26.1921 17.8851C27.3721 18.5776 28.6721 19.0301 30.0371 19.2201C30.0321 19.1101 30.0321 19.0051 30.0321 18.8951C30.0321 18.7051 30.0371 18.5176 30.0446 18.3326C28.9346 18.1651 27.8746 17.8101 26.8971 17.2751C26.5671 17.1001 26.2471 16.8976 25.9346 16.6726C25.7846 16.5726 25.6396 16.4626 25.4946 16.3476C25.4021 16.2776 25.3096 16.2026 25.2221 16.1226C24.9371 15.8851 24.6646 15.6301 24.4146 15.3626C22.6971 13.5551 21.7421 11.1701 21.7421 8.62756C21.7421 6.08506 22.6996 3.70256 24.4196 1.89256C24.6646 1.62506 24.9371 1.37006 25.2221 1.13756C25.5021 1.37506 25.7721 1.62506 26.0221 1.89256C27.7396 3.70006 28.6996 6.08506 28.6996 8.62756C28.6996 11.1701 27.7371 13.5526 26.0221 15.3626C26.0696 15.4076 26.1221 15.4451 26.1721 15.4851C26.3521 15.6301 26.5421 15.7651 26.7296 15.8926C28.5571 13.9301 29.5796 11.3626 29.5796 8.62756C29.5796 5.32256 28.0871 2.25756 25.4921 0.215059L25.2246 -0.00244141H25.2196L24.9521 0.215059C22.3521 2.25756 20.8646 5.32006 20.8646 8.62756C20.8646 11.3626 21.8821 13.9301 23.7096 15.8901C23.9596 16.1626 24.2321 16.4251 24.5171 16.6726H24.5196Z" fill="#E9E9E9"/>
<path d="M17.337 19.2151C17.697 19.2726 18.062 19.3026 18.4345 19.3201C18.5845 19.3251 18.732 19.3301 18.882 19.3301C19.032 19.3301 19.172 19.3251 19.312 19.3201C19.6845 19.3076 20.0495 19.2726 20.4145 19.2201C21.7745 19.0301 23.0695 18.5801 24.257 17.8901C24.012 17.6976 23.7795 17.4951 23.5495 17.2801C22.5695 17.8101 21.512 18.1676 20.407 18.3326C20.047 18.3901 19.677 18.4251 19.3095 18.4426C19.1695 18.4476 19.0245 18.4526 18.8845 18.4526C18.732 18.4526 18.582 18.4476 18.432 18.4401C18.0595 18.4276 17.6895 18.3876 17.3295 18.3251C13.1545 17.6626 9.84945 14.3576 9.18695 10.1801C9.12945 9.82006 9.08945 9.45006 9.07695 9.07756C9.44945 9.09506 9.81945 9.13006 10.1845 9.19256C12.217 9.51256 14.092 10.4626 15.572 11.9451C17.052 13.4251 18.0045 15.3001 18.3245 17.3326C18.5095 17.3501 18.697 17.3551 18.887 17.3551C18.997 17.3551 19.107 17.3551 19.217 17.3451C18.892 15.0701 17.847 12.9776 16.197 11.3251C14.177 9.30006 11.4945 8.19006 8.63195 8.18506H8.18945V8.62756C8.18945 14.0051 12.172 18.4651 17.342 19.2126L17.337 19.2151Z" fill="#E9E9E9"/>
<path d="M31.2421 20.4226C31.4296 21.7876 31.8821 23.0826 32.5771 24.2676C32.7671 24.0226 32.9671 23.7901 33.1821 23.5601C32.6521 22.5801 32.2946 21.5226 32.1296 20.4126C32.0721 20.0526 32.0321 19.6876 32.0196 19.3201C32.0146 19.1801 32.0096 19.0351 32.0096 18.8951C32.0096 18.7426 32.0146 18.5876 32.0221 18.4376C32.0346 18.0601 32.0746 17.6901 32.1371 17.3301C32.8046 13.1626 36.1021 9.86763 40.2671 9.20013C40.6271 9.13763 40.9971 9.10013 41.3746 9.08513C41.3621 9.45763 41.3221 9.82763 41.2596 10.1926C40.5921 14.3601 37.2946 17.6551 33.1296 18.3226C33.1121 18.5126 33.1071 18.7001 33.1071 18.8926C33.1071 19.0026 33.1071 19.1076 33.1171 19.2126C38.2846 18.4626 42.2671 14.0026 42.2671 8.62763V8.19263H41.8321C36.4596 8.19263 31.9971 12.1751 31.2471 17.3426C31.1946 17.7026 31.1596 18.0676 31.1421 18.4401C31.1371 18.5901 31.1321 18.7376 31.1321 18.8926C31.1321 19.0326 31.1371 19.1776 31.1421 19.3176C31.1546 19.6901 31.1896 20.0551 31.2421 20.4201V20.4226Z" fill="#E9E9E9"/>
<path d="M50.4521 25.2324L50.2371 24.9649C48.1996 22.3699 45.1346 20.8774 41.8296 20.8774H41.8246C39.0946 20.8774 36.5221 21.8949 34.5621 23.7224C34.2896 23.9724 34.0271 24.2399 33.7796 24.5249C33.6521 24.6649 33.5346 24.8149 33.4146 24.9649C33.3446 25.0524 33.2796 25.1399 33.2121 25.2324C32.9796 25.5449 32.7646 25.8699 32.5671 26.2024C31.8746 27.3874 31.4221 28.6824 31.2321 30.0449C31.3421 30.0399 31.4471 30.0399 31.5571 30.0399H31.5621C31.7496 30.0399 31.9346 30.0449 32.1196 30.0574C32.2871 28.9499 32.6421 27.8899 33.1771 26.9099C33.3571 26.5774 33.5596 26.2524 33.7821 25.9399C33.8821 25.7949 33.9921 25.6499 34.1021 25.5099C34.1721 25.4174 34.2471 25.3249 34.3296 25.2374C34.5621 24.9524 34.8171 24.6799 35.0846 24.4299C36.8921 22.7124 39.2771 21.7574 41.8196 21.7574H41.8246C44.3621 21.7574 46.7496 22.7199 48.5546 24.4349C48.8221 24.6799 49.0771 24.9474 49.3146 25.2349C49.0771 25.5199 48.8221 25.7924 48.5546 26.0374C46.7471 27.7549 44.3621 28.7149 41.8246 28.7149H41.8196C39.2821 28.7149 36.8946 27.7524 35.0896 26.0424C35.0446 26.0899 35.0071 26.1399 34.9671 26.1874C34.8221 26.3674 34.6871 26.5574 34.5546 26.7449C36.5121 28.5724 39.0846 29.5949 41.8196 29.5949H41.8246C45.1271 29.5949 48.1946 28.1024 50.2321 25.5074L50.4471 25.2399V25.2349L50.4521 25.2324Z" fill="#E9E9E9"/>
<path d="M25.9345 33.7977C25.7895 33.6702 25.6445 33.5477 25.492 33.4277C25.4045 33.3577 25.312 33.2877 25.2195 33.2202C24.907 32.9877 24.587 32.7727 24.2545 32.5827C23.0745 31.8852 21.7745 31.4327 20.412 31.2427C20.417 31.3527 20.417 31.4577 20.417 31.5677C20.417 31.7577 20.412 31.9402 20.3995 32.1252V32.1302C21.5095 32.2977 22.572 32.6527 23.552 33.1877C23.882 33.3677 24.202 33.5652 24.5145 33.7902C24.6645 33.8902 24.8095 34.0002 24.9545 34.1152C25.047 34.1902 25.1395 34.2652 25.232 34.3427C25.517 34.5802 25.7845 34.8352 26.032 35.1027C27.7495 36.9077 28.7045 39.2952 28.7045 41.8327C28.7045 44.3702 27.742 46.7577 26.027 48.5677C25.782 48.8352 25.5145 49.0852 25.227 49.3227C24.942 49.0902 24.6745 48.8352 24.4245 48.5677C22.707 46.7602 21.747 44.3752 21.747 41.8327C21.747 39.2902 22.7095 36.9077 24.4245 35.0977C24.377 35.0527 24.3245 35.0152 24.2745 34.9752C24.0945 34.8302 23.907 34.6952 23.717 34.5677C21.8895 36.5302 20.867 39.0977 20.867 41.8327C20.867 45.1377 22.3545 48.2027 24.9545 50.2452L25.227 50.4577L25.4945 50.2452C28.0895 48.2027 29.582 45.1402 29.582 41.8327C29.582 39.0977 28.5645 36.5302 26.737 34.5702C26.492 34.2977 26.2245 34.0402 25.937 33.7927L25.9345 33.7977Z" fill="#E9E9E9"/>
<path d="M39.1295 34.2726C37.4795 32.6226 35.3795 31.5776 33.1095 31.2526C32.7495 31.2001 32.3795 31.1651 32.012 31.1526C31.862 31.1426 31.7145 31.1401 31.5645 31.1401H31.5595C31.4145 31.1401 31.2745 31.1451 31.1345 31.1501C30.762 31.1626 30.397 31.1976 30.032 31.2501C28.672 31.4401 27.372 31.8901 26.1895 32.5851C26.4345 32.7776 26.667 32.9801 26.897 33.1951C27.877 32.6601 28.9395 32.3051 30.0445 32.1376V32.1326C30.4045 32.0751 30.7645 32.0401 31.1345 32.0276C31.2745 32.0226 31.4195 32.0176 31.5595 32.0176H31.5645C31.717 32.0176 31.867 32.0226 32.017 32.0301C32.3895 32.0476 32.7595 32.0826 33.1245 32.1451C35.157 32.4651 37.027 33.4126 38.507 34.8976C39.992 36.3776 40.9395 38.2476 41.2595 40.2801C41.317 40.6451 41.357 41.0126 41.3695 41.3876C40.992 41.3751 40.622 41.3351 40.262 41.2726C36.0945 40.6051 32.7945 37.3051 32.132 33.1376C31.942 33.1251 31.7545 33.1151 31.5645 33.1151H31.5595C31.4545 33.1151 31.3445 33.1151 31.2395 33.1251C31.9895 38.2926 36.4495 42.2776 41.8245 42.2776H42.2595V41.8426C42.2595 38.9851 41.1495 36.2976 39.1295 34.2751V34.2726Z" fill="#E9E9E9"/>
<path d="M8.62213 29.585C11.3521 29.585 13.9221 28.5675 15.8796 26.745C16.1571 26.495 16.4146 26.2275 16.6646 25.9425C16.7871 25.7975 16.9096 25.6525 17.0296 25.5025C17.0996 25.415 17.1646 25.3275 17.2371 25.235C17.4696 24.9225 17.6846 24.5975 17.8771 24.265C18.5696 23.08 19.0221 21.785 19.2121 20.4225C19.1021 20.4275 18.9921 20.4275 18.8821 20.4275C18.6946 20.4275 18.5096 20.4225 18.3246 20.415C18.1571 21.5225 17.7971 22.58 17.2671 23.5575C17.0821 23.89 16.8846 24.2125 16.6646 24.5225C16.5596 24.6725 16.4546 24.8175 16.3396 24.9575C16.2646 25.05 16.1946 25.1425 16.1121 25.23C15.8746 25.515 15.6196 25.7875 15.3521 26.0325C13.5446 27.75 11.1596 28.705 8.62213 28.705H8.61713C6.07963 28.705 3.69213 27.7425 1.88713 26.0325C1.61963 25.7825 1.36463 25.515 1.12713 25.23C1.36463 24.945 1.61963 24.6725 1.88713 24.4275C3.69213 22.71 6.07963 21.75 8.61713 21.75H8.62213C11.1596 21.755 13.5471 22.7125 15.3521 24.4275C15.3971 24.38 15.4346 24.33 15.4746 24.2825C15.6196 24.0975 15.7546 23.9125 15.8821 23.72C13.9246 21.8925 11.3546 20.875 8.61963 20.87H8.61463C5.30963 20.87 2.24463 22.3625 0.207129 24.9575L-0.00537109 25.225V25.23L0.207129 25.4975C2.24463 28.0925 5.30963 29.585 8.61463 29.585H8.61963H8.62213Z" fill="#E9E9E9"/>
<path d="M19.207 30.045C19.017 28.68 18.567 27.38 17.872 26.2C17.682 26.445 17.482 26.6774 17.262 26.9074C17.797 27.8874 18.152 28.945 18.3195 30.055C18.377 30.415 18.417 30.7799 18.4295 31.1474C18.4345 31.2874 18.4395 31.4324 18.4395 31.5725C18.4395 31.7249 18.4345 31.8749 18.427 32.0299C18.4145 32.4024 18.3745 32.7725 18.317 33.1375C17.992 35.17 17.0445 37.0399 15.5595 38.5199C14.0795 39.9999 12.2045 40.9475 10.177 41.2675C9.812 41.325 9.4445 41.3649 9.0695 41.3774C9.082 41.0049 9.122 40.6299 9.1845 40.2699C9.852 36.1024 13.152 32.8075 17.3195 32.145C17.337 31.955 17.342 31.7675 17.342 31.575C17.342 31.465 17.342 31.3599 17.332 31.2549C12.1645 32.0024 8.1795 36.4624 8.1795 41.8349V42.2699H8.6195C13.9895 42.2699 18.4545 38.2924 19.2045 33.1249C19.257 32.7649 19.292 32.4 19.3095 32.0275C19.3145 31.8774 19.3195 31.73 19.3195 31.575C19.3195 31.43 19.3145 31.2899 19.3095 31.1499C19.297 30.7774 19.262 30.4075 19.2095 30.0475L19.207 30.045Z" fill="#E9E9E9"/>
<path d="M24.5193 16.6726C24.6593 16.8001 24.8043 16.9176 24.9543 17.0376C25.0418 17.1076 25.1343 17.1776 25.2268 17.2451C25.5393 17.4776 25.8593 17.6926 26.1918 17.8851C27.3718 18.5776 28.6718 19.0301 30.0368 19.2201C30.0318 19.1101 30.0318 19.0051 30.0318 18.8951C30.0318 18.7051 30.0368 18.5176 30.0443 18.3326C28.9343 18.1651 27.8743 17.8101 26.8968 17.2751C26.5668 17.1001 26.2468 16.8976 25.9343 16.6726C25.7843 16.5726 25.6393 16.4626 25.4943 16.3476C25.4018 16.2776 25.3093 16.2026 25.2218 16.1226C24.9368 15.8851 24.6643 15.6301 24.4143 15.3626C22.6968 13.5551 21.7418 11.1701 21.7418 8.62756C21.7418 6.08506 22.6993 3.70256 24.4193 1.89256C24.6643 1.62506 24.9368 1.37006 25.2218 1.13756C25.5018 1.37506 25.7718 1.62506 26.0218 1.89256C27.7393 3.70006 28.6993 6.08506 28.6993 8.62756C28.6993 11.1701 27.7368 13.5526 26.0218 15.3626C26.0693 15.4076 26.1218 15.4451 26.1718 15.4851C26.3518 15.6301 26.5418 15.7651 26.7293 15.8926C28.5568 13.9301 29.5793 11.3626 29.5793 8.62756C29.5793 5.32256 28.0868 2.25756 25.4918 0.215059L25.2243 -0.00244141H25.2193L24.9518 0.215059C22.3518 2.25756 20.8643 5.32006 20.8643 8.62756C20.8643 11.3626 21.8818 13.9301 23.7093 15.8901C23.9593 16.1626 24.2318 16.4251 24.5168 16.6726H24.5193Z" fill="#BF1E2D"/>
<path d="M8.18445 8.1875V8.63C8.18445 14.0075 12.1669 18.4675 17.3369 19.215C17.6969 19.2725 18.0619 19.3025 18.4344 19.32C18.5844 19.325 18.7319 19.33 18.8819 19.33C19.0319 19.33 19.1719 19.325 19.3119 19.32C19.6844 19.3075 20.0494 19.2725 20.4145 19.22C21.7745 19.03 23.0694 18.58 24.2569 17.89C24.0119 17.6975 23.7794 17.495 23.5494 17.28C22.5694 17.81 21.5119 18.1675 20.4069 18.3325C20.0469 18.39 19.6769 18.425 19.3094 18.4425C19.1694 18.4475 19.0244 18.4525 18.8844 18.4525C18.7319 18.4525 18.582 18.4475 18.4319 18.44C18.0595 18.4275 17.6894 18.3875 17.3294 18.325C13.1544 17.6625 9.84945 14.3575 9.18695 10.18C9.12945 9.82 9.08945 9.45 9.07695 9.0775L8.18695 8.1875H8.18445Z" fill="#BF1E2D"/>
<path d="M42.2642 8.19507V8.63007C42.2642 14.0026 38.2818 18.4651 33.1143 19.2151C33.1043 19.1101 33.1042 19.0051 33.1042 18.8951C33.1042 18.7026 33.1092 18.5126 33.1267 18.3251C37.2942 17.6576 40.5892 14.3601 41.2567 10.1951C41.3192 9.83007 41.3568 9.46257 41.3718 9.08757L42.2618 8.19757L42.2642 8.19507Z" fill="#BF1E2D"/>
</g>
<defs>
<clipPath id="clip0_1_24">
<rect width="143.958" height="50.4625" fill="white"/>
</clipPath>
</defs>
</svg>
