<svg width="162" height="181" viewBox="0 0 162 181" fill="none" xmlns="http://www.w3.org/2000/svg">
<g clip-path="url(#clip0_201_2)">
<path d="M39.9862 6.86254C48.3975 15.4125 60.0675 12.1425 52.8675 22.7025C50.1862 26.6213 39.3188 23.64 32.91 31.3688C33.6 35.2725 33.8363 38.3025 35.76 40.3425C36.5813 28.725 51.705 34.3163 57.69 26.8238C59.9587 24.0525 62.2988 19.1288 61.215 15.1088C58.92 6.6863 45.0187 6.57754 43.0163 0.0037951C30.4838 0.0037951 43.395 -0.393705 28.5713 6.58129C23.6475 8.89879 18.7237 11.3438 18.4688 16.9275C20.5763 17.1375 22.8112 17.9325 25.245 19.3463C22.7887 13.0875 33.4088 13.5488 39.99 6.86254H39.9862Z" fill="#CD7F32"/>
<path d="M73.3875 28.5713C71.0663 23.6438 68.6213 18.7237 63.0413 18.4688C62.8313 20.5725 62.0288 22.8225 60.6188 25.245C66.8888 22.7737 66.405 33.4012 73.1063 39.9862C64.7138 48.2325 67.8263 60.0975 57.2663 52.8675C53.3813 50.2087 56.3438 39.3337 48.6 32.91C45.1275 33.555 41.7713 33.7463 39.63 35.76C51.4275 36.57 45.4838 51.57 53.145 57.69C54.915 59.1375 58.515 61.0875 61.4363 61.44C72.8963 62.9062 72.7575 45.21 79.9613 43.0163C79.9613 30.4275 80.37 43.4063 73.3875 28.5713Z" fill="#CD7F32"/>
<path d="M39.9862 73.1101C31.7475 64.7326 19.8825 67.8451 27.1012 57.2701C29.79 53.3401 40.6425 56.3476 47.0587 48.6076C46.3762 44.7526 46.1212 41.6401 44.2087 39.6376C44.0812 41.4788 43.2825 43.2938 42.0562 44.7113C37.4888 49.9913 27.3637 46.7813 22.2787 53.1488C20.01 55.9201 17.67 60.8438 18.7537 64.8638C21.0487 73.2976 34.9537 73.3951 36.9525 79.9688C49.275 79.9688 36.8775 80.2163 51.3975 73.3951C56.3287 71.0738 61.245 68.6326 61.5 63.0451C59.3925 62.8351 57.1537 62.0401 54.7237 60.6263C57.1875 66.9076 46.6012 66.3826 39.9825 73.1101H39.9862Z" fill="#CD7F32"/>
<path d="M6.86257 39.9863C15.4126 31.5751 12.1426 19.9051 22.7026 27.1051C26.5951 29.7676 23.6588 40.6726 31.3651 47.0626C35.4376 46.3426 38.3176 46.1176 40.3388 44.2126C38.4938 44.0851 36.6863 43.2901 35.2651 42.0563C30.0076 37.5376 33.1838 27.3601 26.8163 22.2751C24.0601 20.0176 19.1288 17.6738 15.1088 18.7538C6.67507 21.0488 6.57757 34.9501 0.00381615 36.9563C0.00381615 49.5076 -0.389933 36.6076 6.57757 51.3976C8.90257 56.3363 11.3476 61.2451 16.9238 61.5001C17.1376 59.3963 17.9363 57.1538 19.3463 54.7276C13.1101 57.1726 13.5113 46.5226 6.86257 39.9826V39.9863Z" fill="#CD7F32"/>
</g>
<path d="M99.6512 10.7287H97V5.55371H107.477V10.7287H104.826V39.2175H99.6512V10.7287Z" fill="#008799"/>
<path d="M115.431 0C118.503 1.6425 121.574 2.4 124.649 2.355L124.566 4.5C121.536 4.54125 118.465 3.78375 115.435 2.145C112.405 3.7875 109.334 4.545 106.304 4.5L106.218 2.355C109.289 2.39625 112.364 1.63875 115.435 0H115.431ZM116.526 39.2212V35.6025H115.683C115.683 37.7062 115.641 39.2212 114.546 39.2212H113.451C111.685 39.2212 109.203 37.035 109.203 32.6138V24.7875C109.203 20.37 111.685 18.18 113.451 18.18H116.523V17.1263C116.523 12.075 116.65 11.1525 115.428 11.1525C114.205 11.1525 114.333 11.7 114.333 16.7062L109.158 17.4225V12.1612C109.158 7.74375 111.64 5.55375 113.406 5.55375H117.445C119.211 5.55375 121.694 7.74 121.694 12.1612V39.2175H116.519L116.526 39.2212ZM115.514 33.6225H116.523V25.5412C116.523 24.1087 116.271 23.775 115.514 23.775C114.588 23.775 114.378 24.2813 114.378 26.6775V30.7163C114.378 33.1163 114.588 33.6187 115.514 33.6187V33.6225Z" fill="#008799"/>
<path d="M123.385 5.55371H131.17C132.179 5.55371 132.306 7.06871 132.306 9.17246H133.146V5.55371H138.955C140.721 5.55371 143.204 7.73996 143.204 12.1612V39.2175H138.029V17.1262C138.029 12.0337 138.156 11.1525 136.893 11.1525H135.884V39.2212H130.709V14.055C130.709 11.655 130.54 11.1525 129.573 11.1525H128.564V39.2212H123.389V5.55746L123.385 5.55371Z" fill="#008799"/>
<path d="M149.095 5.5538H154.27V15.0226C154.27 20.1151 154.06 20.9963 155.279 20.9963C156.497 20.9963 156.415 20.1113 156.415 15.0226V5.5538H161.59V19.9875C161.59 23.9438 159.614 26.0888 157.93 26.5088V39.2175H152.755V26.55C151.112 26.2125 149.095 24.0263 149.095 19.9838V5.55005V5.5538Z" fill="#008799"/>
<path d="M108.816 42.0038C110.807 42.0038 113.609 44.4713 113.609 49.455V72.5175C113.609 77.5013 110.807 79.9688 108.816 79.9688H99.5162V42.0038H108.816ZM106.491 73.6575C107.916 73.6575 107.774 72.66 107.774 66.9188V55.0538C107.774 49.3125 107.916 48.315 106.491 48.315H105.351V73.6575H106.491Z" fill="#008799"/>
<path d="M115.51 42.0038H121.349V66.9188C121.349 72.66 121.113 73.6575 122.489 73.6575C123.865 73.6575 123.771 72.66 123.771 66.9188V42.0038H129.61V72.5175C129.61 77.5013 126.809 79.9688 124.818 79.9688H120.168C118.221 79.9688 115.518 77.5013 115.518 72.5175V42.0038H115.51Z" fill="#008799"/>
<path d="M139.57 42.0038H140.804C142.795 42.0038 145.596 44.4713 145.596 49.455V79.9688H139.757V55.0538C139.757 49.3125 139.9 48.315 138.475 48.315H137.335V79.9688H131.496V42.0038H139.562H139.57Z" fill="#008799"/>
<path d="M147.498 72.5175V49.455C147.498 44.4713 150.156 42.0038 152.148 42.0038H156.846C158.793 42.0038 161.59 44.4713 161.59 49.455V52.2563H155.751C155.751 48.9825 155.658 48.27 154.469 48.27C153.044 48.27 153.329 49.3613 153.329 55.0575V66.9225C153.329 72.6188 153.044 73.71 154.469 73.71C155.751 73.71 155.751 72.7125 155.751 67.9688V66.1163C155.751 64.6913 158.174 64.8338 159.831 64.8338V63.885H154.563L155.369 58.8075H161.586V72.5213C161.586 77.505 158.785 79.9725 156.843 79.9725H152.144C150.149 79.9725 147.494 77.505 147.494 72.5213L147.498 72.5175Z" fill="#008799"/>
<defs>
<clipPath id="clip0_201_2">
<rect width="79.9688" height="180.938" fill="white"/>
</clipPath>
</defs>
</svg>
