<?xml version="1.0" encoding="utf-8"?>
<!-- Generator: Adobe Illustrator 27.9.0, SVG Export Plug-In . SVG Version: 6.00 Build 0)  -->
<svg version="1.1" id="Layer_1" xmlns="http://www.w3.org/2000/svg" xmlns:xlink="http://www.w3.org/1999/xlink" x="0px" y="0px"
	 viewBox="0 0 162 80" style="enable-background:new 0 0 162 80;" xml:space="preserve">
<style type="text/css">
	.st0{clip-path:url(#SVGID_00000150802954965018674620000013667069803075775155_);}
	.st1{fill:#CD7F32;}
	.st2{fill:#008799;}
</style>
<g>
	<defs>
		<rect id="SVGID_1_" width="80" height="180.9"/>
	</defs>
	<clipPath id="SVGID_00000053544708209496282140000007339752145022459041_">
		<use xlink:href="#SVGID_1_"  style="overflow:visible;"/>
	</clipPath>
	<g style="clip-path:url(#SVGID_00000053544708209496282140000007339752145022459041_);">
		<path class="st1" d="M40,6.9c8.4,8.5,20.1,5.3,12.9,15.8c-2.7,3.9-13.5,0.9-20,8.7c0.7,3.9,0.9,6.9,2.8,9
			c0.8-11.6,15.9-6,21.9-13.5c2.3-2.8,4.6-7.7,3.5-11.7C58.9,6.7,45,6.6,43,0c-12.5,0,0.4-0.4-14.4,6.6c-4.9,2.3-9.8,4.8-10.1,10.3
			c2.1,0.2,4.3,1,6.8,2.4C22.8,13.1,33.4,13.5,40,6.9L40,6.9z"/>
		<path class="st1" d="M73.4,28.6c-2.3-4.9-4.8-9.8-10.3-10.1c-0.2,2.1-1,4.4-2.4,6.8c6.3-2.5,5.8,8.2,12.5,14.7
			c-8.4,8.2-5.3,20.1-15.8,12.9c-3.9-2.7-0.9-13.5-8.7-20c-3.5,0.6-6.8,0.8-9,2.8c11.8,0.8,5.9,15.8,13.5,21.9
			c1.8,1.4,5.4,3.4,8.3,3.8C72.9,62.9,72.8,45.2,80,43C80,30.4,80.4,43.4,73.4,28.6z"/>
		<path class="st1" d="M40,73.1c-8.2-8.4-20.1-5.3-12.9-15.8c2.7-3.9,13.5-0.9,20-8.7c-0.7-3.9-0.9-7-2.9-9
			c-0.1,1.8-0.9,3.7-2.2,5.1c-4.6,5.3-14.7,2.1-19.8,8.4c-2.3,2.8-4.6,7.7-3.5,11.7C21,73.3,35,73.4,37,80c12.3,0-0.1,0.2,14.4-6.6
			c4.9-2.3,9.8-4.8,10.1-10.4c-2.1-0.2-4.3-1-6.8-2.4C57.2,66.9,46.6,66.4,40,73.1L40,73.1z"/>
		<path class="st1" d="M6.9,40c8.6-8.4,5.3-20.1,15.8-12.9c3.9,2.7,1,13.6,8.7,20c4.1-0.7,7-0.9,9-2.8c-1.8-0.1-3.7-0.9-5.1-2.2
			c-5.3-4.5-2.1-14.7-8.4-19.8c-2.8-2.3-7.7-4.6-11.7-3.5C6.7,21,6.6,35,0,37c0,12.6-0.4-0.3,6.6,14.4c2.3,4.9,4.8,9.8,10.3,10.1
			c0.2-2.1,1-4.3,2.4-6.8C13.1,57.2,13.5,46.5,6.9,40L6.9,40z"/>
	</g>
</g>
<path class="st2" d="M99.7,10.7H97V5.6h10.5v5.2h-2.7v28.5h-5.2V10.7z"/>
<path class="st2" d="M115.4,0c3.1,1.6,6.1,2.4,9.2,2.4l-0.1,2.1c-3,0-6.1-0.7-9.1-2.4c-3,1.6-6.1,2.4-9.1,2.4l-0.1-2.1
	C109.3,2.4,112.4,1.6,115.4,0L115.4,0z M116.5,39.2v-3.6h-0.8c0,2.1,0,3.6-1.1,3.6h-1.1c-1.8,0-4.2-2.2-4.2-6.6v-7.8
	c0-4.4,2.5-6.6,4.2-6.6h3.1v-1.1c0-5.1,0.1-6-1.1-6c-1.2,0-1.1,0.5-1.1,5.6l-5.2,0.7v-5.3c0-4.4,2.5-6.6,4.2-6.6h4
	c1.8,0,4.2,2.2,4.2,6.6v27.1L116.5,39.2L116.5,39.2z M115.5,33.6h1v-8.1c0-1.4-0.3-1.8-1-1.8c-0.9,0-1.1,0.5-1.1,2.9v4
	C114.4,33.1,114.6,33.6,115.5,33.6L115.5,33.6z"/>
<path class="st2" d="M123.4,5.6h7.8c1,0,1.1,1.5,1.1,3.6h0.8V5.6h5.8c1.8,0,4.2,2.2,4.2,6.6v27.1H138V17.1c0-5.1,0.1-6-1.1-6h-1
	v28.1h-5.2V14.1c0-2.4-0.2-2.9-1.1-2.9h-1v28.1h-5.2L123.4,5.6L123.4,5.6z"/>
<path class="st2" d="M149.1,5.6h5.2V15c0,5.1-0.2,6,1,6c1.2,0,1.1-0.9,1.1-6V5.6h5.2V20c0,4-2,6.1-3.7,6.5v12.7h-5.2V26.5
	c-1.6-0.3-3.7-2.5-3.7-6.6V5.6L149.1,5.6z"/>
<path class="st2" d="M108.8,42c2,0,4.8,2.5,4.8,7.5v23.1c0,5-2.8,7.5-4.8,7.5h-9.3V42H108.8z M106.5,73.7c1.4,0,1.3-1,1.3-6.7V55.1
	c0-5.7,0.1-6.7-1.3-6.7h-1.1v25.3H106.5z"/>
<path class="st2" d="M115.5,42h5.8v24.9c0,5.7-0.2,6.7,1.1,6.7s1.3-1,1.3-6.7V42h5.8v30.5c0,5-2.8,7.5-4.8,7.5h-4.7
	c-1.9,0-4.7-2.5-4.7-7.5L115.5,42L115.5,42z"/>
<path class="st2" d="M139.6,42h1.2c2,0,4.8,2.5,4.8,7.5V80h-5.8V55.1c0-5.7,0.1-6.7-1.3-6.7h-1.1V80h-5.8V42H139.6L139.6,42z"/>
<path class="st2" d="M147.5,72.5V49.5c0-5,2.7-7.5,4.6-7.5h4.7c1.9,0,4.7,2.5,4.7,7.5v2.8h-5.8c0-3.3-0.1-4-1.3-4
	c-1.4,0-1.1,1.1-1.1,6.8v11.9c0,5.7-0.3,6.8,1.1,6.8c1.3,0,1.3-1,1.3-5.7v-1.9c0-1.4,2.4-1.3,4.1-1.3v-0.9h-5.3l0.8-5.1h6.2v13.7
	c0,5-2.8,7.5-4.7,7.5h-4.7C150.1,80,147.5,77.5,147.5,72.5L147.5,72.5z"/>
</svg>
