<svg width="472" height="478" viewBox="0 0 472 478" fill="none" xmlns="http://www.w3.org/2000/svg">
<g clip-path="url(#clip0_1_48)">
<path d="M247.52 9.84C253.49 13.11 248.65 21.09 242.76 19.23C237.24 17.43 236.14 10.18 240.56 6.55C244.65 2.98 250.66 3.97 254.86 6.78C263.35 11.54 275.17 19.89 285.2 17.23C288.56 16.3 291.68 13.64 292.15 10.07C292.93 5.12 287.68 1.04 283.09 3.06C279.84 4.41 278.75 9.46 281.85 11.56C282.79 12.22 284.02 12.46 285.15 12.21C285.3 12.18 285.45 12.27 285.49 12.42C285.52 12.57 285.43 12.72 285.28 12.76C284 13.07 282.6 12.82 281.5 12.09C279.19 10.62 278.72 7.35 279.95 5.02C281.78 1.25 287.12 0.789998 290.19 3.25C296.22 8.27 292.22 16.41 285.48 18.19C274.94 21.08 263.18 12.6 254.38 7.61C250.5 4.98 244.92 3.95 241.13 7.23C237.18 10.45 238.12 16.83 243 18.51C248.11 20.21 252.47 13.28 247.29 10.37C246.97 10.21 247.18 9.71 247.53 9.86L247.52 9.84Z" fill="#E9CC61"/>
<path d="M243.55 0.529924C250.2 -1.70008 258.49 3.59992 264.4 6.36992C267.66 8.01992 270.91 9.67992 274.25 11.1299C280.87 13.9899 287.99 16.1799 295.26 15.6899C298.72 15.4599 302.57 14.7899 304.92 12.0699C306.53 10.1899 306.96 6.92992 304.96 5.19992C303.04 3.52992 299.59 3.95992 298.45 6.34992C297.68 7.83992 297.98 9.94992 299.47 10.8499C299.6 10.9299 299.64 11.0899 299.56 11.2199C299.48 11.3499 299.31 11.3899 299.18 11.3099C298.34 10.7999 297.72 9.90992 297.53 8.93992C296.8 5.83992 299.69 3.02992 302.76 3.47992C307.41 3.93992 308.3 9.45992 305.59 12.6299C303.06 15.6299 298.99 16.3699 295.31 16.6299C284.11 17.4199 273.6 12.1599 263.98 7.14992C258.32 4.41992 250.04 -0.980076 243.72 1.02992C243.58 1.07992 243.42 1.00992 243.37 0.869924C243.32 0.729924 243.39 0.579924 243.53 0.529924H243.55Z" fill="#E9CC61"/>
<path d="M284.65 12.9198C285.71 12.9198 286.57 12.2796 286.57 11.4898C286.57 10.7 285.71 10.0598 284.65 10.0598C283.59 10.0598 282.73 10.7 282.73 11.4898C282.73 12.2796 283.59 12.9198 284.65 12.9198Z" fill="#E9CC61"/>
<path d="M300.89 11.4599C300.46 11.9499 299.59 11.8899 298.93 11.3099C298.27 10.7299 298.09 9.87993 298.51 9.38992C298.94 8.89992 299.81 8.95992 300.47 9.53992C301.13 10.1099 301.31 10.9699 300.89 11.4599Z" fill="#E9CC61"/>
<path d="M240.15 23.0599C238.48 22.5099 236.82 22.3199 235.55 20.8499L234.53 22.1299C233.45 23.4899 233.45 25.4199 234.53 26.7799L235.55 28.0599L236.57 26.7799C237.01 26.2299 237.26 25.5899 237.34 24.9299C237.46 24.9899 237.58 25.0499 237.7 25.0899C239.29 25.7799 241.58 25.3199 242.22 23.5399C241.3 23.3699 240.7 23.2199 240.15 23.0699V23.0599Z" fill="#E9CC61"/>
<path d="M235.55 16.78L234.47 18.4L235.55 20.03L236.63 18.4L235.55 16.78Z" fill="#E9CC61"/>
<path d="M235.55 0.5L233.93 3.45L235.55 6.4L237.17 3.45L235.55 0.5Z" fill="#E9CC61"/>
<path d="M223.83 10.3499C218.63 13.2699 223.03 20.1999 228.12 18.4899C232.98 16.8099 233.94 10.4299 229.99 7.20986C226.19 3.92986 220.62 4.95986 216.74 7.58986C210.37 11.3399 204 15.4299 196.87 17.6799C192.12 19.1999 186.48 19.4299 182.16 16.5499C178.93 14.4299 176.95 10.0499 178.56 6.31986C180.02 2.57986 184.69 0.609859 188.37 2.29986C192.12 3.88986 193.22 9.73986 189.62 12.0699C188.52 12.7999 187.11 13.0599 185.84 12.7399C185.69 12.6999 185.6 12.5499 185.63 12.3999C185.67 12.2499 185.82 12.1599 185.97 12.1899C187.1 12.4499 188.33 12.1899 189.27 11.5399C191.26 10.2199 191.59 7.35986 190.48 5.35986C188.81 2.08986 184.16 1.73986 181.45 3.91986C176.08 8.47986 179.87 15.6699 185.91 17.2099C191.86 18.8599 197.97 16.4599 203.35 13.9499C207.78 11.8399 211.98 9.24986 216.25 6.75986C220.45 3.94986 226.46 2.95986 230.55 6.52986C234.96 10.1599 233.88 17.4099 228.35 19.2099C222.43 21.0699 217.63 13.0699 223.59 9.81986C223.91 9.66986 224.17 10.1699 223.83 10.3299V10.3499Z" fill="#E9CC61"/>
<path d="M227.37 1.03995C221.06 -0.970046 212.76 4.43995 207.11 7.15995C200.64 10.53 194.02 13.89 186.81 15.63C179.77 17.51 162.78 18.1 164.12 7.12995C165.55 1.29995 174.68 2.82995 173.58 8.94995C173.39 9.92995 172.77 10.81 171.92 11.32C171.79 11.4 171.63 11.36 171.55 11.23C171.47 11.1 171.51 10.94 171.64 10.86C173.13 9.94995 173.43 7.84995 172.66 6.35995C171.53 3.96995 168.07 3.53995 166.15 5.20995C164.15 6.94995 164.58 10.21 166.19 12.08C168.54 14.8 172.39 15.47 175.85 15.7C183.12 16.2 190.24 14 196.86 11.14C200.2 9.67995 203.45 8.02995 206.71 6.37995C212.62 3.59995 220.91 -1.70005 227.56 0.539954C227.7 0.589954 227.77 0.749954 227.72 0.889954C227.67 1.02995 227.51 1.09995 227.37 1.04995V1.03995Z" fill="#E9CC61"/>
<path d="M184.53 11.4901C184.53 12.2801 185.39 12.9201 186.45 12.9201C187.51 12.9201 188.37 12.2801 188.37 11.4901C188.37 10.7001 187.51 10.0601 186.45 10.0601C185.39 10.0601 184.53 10.7001 184.53 11.4901Z" fill="#E9CC61"/>
<path d="M170.21 11.4599C170.64 11.9499 171.51 11.8899 172.17 11.3099C172.83 10.7399 173.01 9.87993 172.59 9.38992C172.16 8.89992 171.29 8.95992 170.63 9.53992C169.97 10.1099 169.79 10.9699 170.21 11.4599Z" fill="#E9CC61"/>
<path d="M230.95 23.0599C232.62 22.5099 234.28 22.3199 235.55 20.8499L236.57 22.1299C237.65 23.4899 237.65 25.4199 236.57 26.7799L235.55 28.0599L234.53 26.7799C234.09 26.2299 233.84 25.5899 233.76 24.9299C233.64 24.9899 233.52 25.0499 233.4 25.0899C231.81 25.7799 229.52 25.3199 228.88 23.5399C229.8 23.3699 230.4 23.2199 230.95 23.0699V23.0599Z" fill="#E9CC61"/>
<path d="M235.55 16.78L236.63 18.4L235.55 20.03L234.47 18.4L235.55 16.78Z" fill="#E9CC61"/>
<path d="M235.55 0.5L237.17 3.45L235.55 6.4L233.93 3.45L235.55 0.5Z" fill="#E9CC61"/>
<path d="M235.55 7.6499C236.05 10.1599 236.04 12.6899 235.55 15.1999C235.06 12.6899 235.05 10.1599 235.55 7.6499Z" fill="#E9CC61"/>
<path d="M466.88 149.56L468.11 152.12V154.31H467.51C467.28 154.31 467.09 154.5 467.09 154.73C467.09 154.96 467.28 155.15 467.51 155.15H468.11V155.73C467.82 155.85 467.62 156.14 467.62 156.47C467.62 156.8 467.82 157.09 468.11 157.21V157.8H466.92C466.54 157.8 466.23 158.11 466.23 158.49C466.23 158.87 466.54 159.18 466.92 159.18H468.11V211.84L466.13 215.94L468.11 220.04V222.7H467.51C467.28 222.7 467.09 222.89 467.09 223.12C467.09 223.35 467.28 223.54 467.51 223.54H468.11V226.68H466.92C466.54 226.68 466.23 226.99 466.23 227.37C466.23 227.75 466.54 228.06 466.92 228.06H468.11V231.77L466.56 234.98C465.99 236.16 465.7 237.45 465.7 238.73C465.7 240.01 465.99 241.3 466.56 242.48L468.11 245.69V249.4H466.92C466.54 249.4 466.23 249.71 466.23 250.09C466.23 250.47 466.54 250.78 466.92 250.78H468.11V253.92H467.51C467.28 253.92 467.09 254.11 467.09 254.34C467.09 254.57 467.28 254.76 467.51 254.76H468.11V257.42L466.13 261.52L468.11 265.62V318.28H466.92C466.54 318.28 466.23 318.59 466.23 318.97C466.23 319.35 466.54 319.66 466.92 319.66H468.11V320.25C467.82 320.37 467.62 320.66 467.62 320.99C467.62 321.32 467.82 321.61 468.11 321.73V322.31H467.51C467.28 322.31 467.09 322.5 467.09 322.73C467.09 322.96 467.28 323.15 467.51 323.15H468.11V325.34L466.88 327.9L468.43 331.12L469.98 327.9L468.75 325.34V323.15H469.35C469.58 323.15 469.77 322.96 469.77 322.73C469.77 322.5 469.58 322.31 469.35 322.31H468.75V321.73C469.04 321.61 469.24 321.32 469.24 320.99C469.24 320.66 469.04 320.37 468.75 320.25V319.66H469.94C470.32 319.66 470.63 319.35 470.63 318.97C470.63 318.59 470.32 318.28 469.94 318.28H468.75V265.62L470.73 261.52L468.75 257.42V254.76H469.35C469.58 254.76 469.77 254.57 469.77 254.34C469.77 254.11 469.58 253.92 469.35 253.92H468.75V250.78H469.94C470.32 250.78 470.63 250.47 470.63 250.09C470.63 249.71 470.32 249.4 469.94 249.4H468.75V245.69L470.3 242.48C470.87 241.3 471.16 240.01 471.16 238.73C471.16 237.45 470.87 236.16 470.3 234.98L468.75 231.77V228.06H469.94C470.32 228.06 470.63 227.75 470.63 227.37C470.63 226.99 470.32 226.68 469.94 226.68H468.75V223.54H469.35C469.58 223.54 469.77 223.35 469.77 223.12C469.77 222.89 469.58 222.7 469.35 222.7H468.75V220.04L470.73 215.94L468.75 211.84V159.18H469.94C470.32 159.18 470.63 158.87 470.63 158.49C470.63 158.11 470.32 157.8 469.94 157.8H468.75V157.21C469.04 157.09 469.24 156.8 469.24 156.47C469.24 156.14 469.04 155.85 468.75 155.73V155.15H469.35C469.58 155.15 469.77 154.96 469.77 154.73C469.77 154.5 469.58 154.31 469.35 154.31H468.75V152.12L469.98 149.56L468.43 146.34L466.88 149.56Z" fill="#E9CC61"/>
<path d="M4.28 149.56L3.05 152.12V154.31H3.65C3.88 154.31 4.07 154.5 4.07 154.73C4.07 154.96 3.88 155.15 3.65 155.15H3.05V155.73C3.34 155.85 3.54 156.14 3.54 156.47C3.54 156.8 3.34 157.09 3.05 157.21V157.8H4.24C4.62 157.8 4.93 158.11 4.93 158.49C4.93 158.87 4.62 159.18 4.24 159.18H3.05V211.84L5.03 215.94L3.05 220.04V222.7H3.65C3.88 222.7 4.07 222.89 4.07 223.12C4.07 223.35 3.88 223.54 3.65 223.54H3.05V226.68H4.24C4.62 226.68 4.93 226.99 4.93 227.37C4.93 227.75 4.62 228.06 4.24 228.06H3.05V231.77L4.6 234.98C5.17 236.16 5.46 237.45 5.46 238.73C5.46 240.01 5.17 241.3 4.6 242.48L3.05 245.69V249.4H4.24C4.62 249.4 4.93 249.71 4.93 250.09C4.93 250.47 4.62 250.78 4.24 250.78H3.05V253.92H3.65C3.88 253.92 4.07 254.11 4.07 254.34C4.07 254.57 3.88 254.76 3.65 254.76H3.05V257.42L5.03 261.52L3.05 265.62V318.28H4.24C4.62 318.28 4.93 318.59 4.93 318.97C4.93 319.35 4.62 319.66 4.24 319.66H3.05V320.25C3.34 320.37 3.54 320.66 3.54 320.99C3.54 321.32 3.34 321.61 3.05 321.73V322.31H3.65C3.88 322.31 4.07 322.5 4.07 322.73C4.07 322.96 3.88 323.15 3.65 323.15H3.05V325.34L4.28 327.9L2.73 331.12L1.18 327.9L2.41 325.34V323.15H1.81C1.58 323.15 1.39 322.96 1.39 322.73C1.39 322.5 1.58 322.31 1.81 322.31H2.41V321.73C2.12 321.61 1.92 321.32 1.92 320.99C1.92 320.66 2.12 320.37 2.41 320.25V319.66H1.22C0.84 319.66 0.53 319.35 0.53 318.97C0.53 318.59 0.84 318.28 1.22 318.28H2.41V265.62L0.43 261.52L2.41 257.42V254.76H1.81C1.58 254.76 1.39 254.57 1.39 254.34C1.39 254.11 1.58 253.92 1.81 253.92H2.41V250.78H1.22C0.84 250.78 0.53 250.47 0.53 250.09C0.53 249.71 0.84 249.4 1.22 249.4H2.41V245.69L0.86 242.48C0.29 241.3 0 240.01 0 238.73C0 237.45 0.29 236.16 0.86 234.98L2.41 231.77V228.06H1.22C0.84 228.06 0.53 227.75 0.53 227.37C0.53 226.99 0.84 226.68 1.22 226.68H2.41V223.54H1.81C1.58 223.54 1.39 223.35 1.39 223.12C1.39 222.89 1.58 222.7 1.81 222.7H2.41V220.04L0.43 215.94L2.41 211.84V159.18H1.22C0.84 159.18 0.53 158.87 0.53 158.49C0.53 158.11 0.84 157.8 1.22 157.8H2.41V157.21C2.12 157.09 1.92 156.8 1.92 156.47C1.92 156.14 2.12 155.85 2.41 155.73V155.15H1.81C1.58 155.15 1.39 154.96 1.39 154.73C1.39 154.5 1.58 154.31 1.81 154.31H2.41V152.12L1.18 149.56L2.73 146.34L4.28 149.56Z" fill="#E9CC61"/>
<path d="M43.03 8.31008C34.87 13.2001 31.02 23.2301 33.25 32.3601C33.43 33.1201 33.74 33.9301 33.96 34.6801C34.29 35.3901 34.57 36.2101 34.94 36.8901C35.29 37.6001 35.69 38.2801 36.12 38.9301L32.11 34.9201L30.75 29.9601L25.79 28.6001L25.51 28.3201C21.77 23.0601 22.31 15.5701 27.07 11.1601C28.54 9.69008 30.46 8.71008 32.56 8.28008C32.69 8.25008 32.78 8.12008 32.75 7.99008C32.73 7.87008 32.62 7.79008 32.51 7.79008C30.26 7.79008 27.95 8.67008 26.22 10.2001C22.63 13.1401 20.97 18.1701 21.97 22.6901C22.22 23.8601 22.65 24.9901 23.22 26.0301L20.89 23.7001C20.89 23.7001 20.88 23.6901 20.87 23.6801C16.6 19.2701 15.37 12.7101 17.07 6.89008C17.15 6.62008 16.73 6.45008 16.61 6.72008C14.53 10.9601 15.04 16.1101 17.36 20.1801L13.03 15.8501L12.47 13.8001L10.42 13.2401L7.22 10.0401C8.65 8.38008 11.82 8.46008 12.06 10.8001C12.48 5.59008 6.45 4.89008 4.37 7.19008C4.32 7.15008 4.26 7.13008 4.2 7.13008C4.2 7.13008 4.19 7.13008 4.18 7.13008C4.16 7.13008 4.13 7.13008 4.11 7.14008C4.08 7.15008 4.06 7.17008 4.03 7.19008C4 7.21008 3.99 7.24008 3.98 7.27008C3.98 7.29008 3.97 7.31008 3.97 7.34008C3.97 7.34008 3.97 7.35008 3.97 7.36008C3.97 7.42008 3.99 7.48008 4.03 7.53008C1.73 9.62008 2.43 15.6501 7.64 15.2201C5.3 14.9901 5.22 11.8101 6.88 10.3801L10.08 13.5801L10.64 15.6301L12.69 16.1901L17.02 20.5201C12.96 18.1901 7.8 17.6901 3.56 19.7701C3.3 19.8901 3.46 20.3101 3.73 20.2301C9.54 18.5301 16.11 19.7601 20.52 24.0301C20.52 24.0301 20.53 24.0401 20.54 24.0501L22.87 26.3801C21.83 25.8101 20.71 25.3801 19.53 25.1301C15.02 24.1201 9.99 25.7901 7.04 29.3801C5.5 31.1101 4.63 33.4201 4.63 35.6701C4.63 35.7801 4.71 35.8901 4.83 35.9101C4.96 35.9401 5.09 35.8501 5.12 35.7201C5.55 33.6101 6.53 31.6901 8 30.2301C12.41 25.4701 19.9 24.9301 25.16 28.6701L25.44 28.9501L26.8 33.9101L31.76 35.2701L35.77 39.2801C35.11 38.8501 34.43 38.4501 33.73 38.1001C33.05 37.7401 32.22 37.4501 31.52 37.1201C30.77 36.9001 29.96 36.5901 29.2 36.4101C20.07 34.1801 10.04 38.0201 5.15 46.1901C-2.16 58.3301 8.06 76.1401 22.75 71.8901C28.01 70.3601 32.48 65.5301 32.32 59.8601C32.33 56.9101 31.11 54.0201 29.06 51.9301C28.93 51.7301 28.78 51.5401 28.6 51.3701C27.72 50.5601 26.51 50.4301 25.91 51.0901C25.31 51.7501 25.52 52.9401 26.4 53.7501C27.28 54.5601 28.49 54.6901 29.09 54.0301C29.3 53.8101 29.4 53.5201 29.42 53.2101C32.28 57.2201 32.14 62.9901 28.72 66.7201C24.37 71.7601 16.26 72.5801 10.97 68.6201C2.92 62.6701 2.1 50.3701 9.32 43.4201C13.91 38.6101 20.87 36.2801 27.45 37.1901C30.23 37.5801 33.02 38.5001 35.45 39.9201C35.78 40.1201 36.44 40.5401 36.77 40.7401C37.22 41.0501 38.19 41.8001 38.64 42.1401L42.79 46.2901L43.64 49.3801L46.73 50.2301L53.6 57.1001C53.7 57.2001 53.85 57.2001 53.94 57.1001C54.03 57.0001 54.04 56.8501 53.94 56.7601L47.07 49.8901L46.22 46.8001L43.13 45.9501L38.98 41.8001C38.64 41.3401 37.89 40.3801 37.58 39.9301C37.38 39.5901 36.96 38.9401 36.76 38.6101C35.34 36.1801 34.42 33.3901 34.03 30.6101C33.13 24.0301 35.45 17.0801 40.26 12.4801C47.21 5.26008 59.51 6.09008 65.46 14.1301C69.42 19.4301 68.6 27.5301 63.56 31.8801C59.82 35.3001 54.05 35.4401 50.05 32.5801C50.36 32.5601 50.65 32.4501 50.87 32.2501C51.53 31.6401 51.4 30.4401 50.59 29.5601C49.78 28.6801 48.58 28.4601 47.93 29.0701C47.28 29.6801 47.4 30.8801 48.21 31.7601C48.38 31.9501 48.58 32.1001 48.77 32.2201C50.87 34.2701 53.75 35.4901 56.7 35.4801C62.37 35.6401 67.2 31.1601 68.73 25.9101C72.97 11.2201 55.16 0.99008 43.03 8.31008Z" fill="#E9CC61"/>
<path d="M78.53 10.86C78.99 17.9 72.03 23.99 65.08 22.62C60.38 21.73 56.83 17.05 57.34 12.24C58.24 3.77003 71.09 2.40003 71.29 11.67H70.87C70.78 10.62 70.44 9.61003 69.84 8.78003C66.59 4.19003 59.25 7.19003 58.86 12.4C58.28 20.86 68.03 24.16 74.09 19.13C76.6 17.13 78.13 14.06 78.29 10.85H78.52L78.53 10.86Z" fill="#E9CC61"/>
<path d="M75.11 5.89014C76.31 7.09014 76.66 9.00014 76.66 9.00014L90.79 5.89014H75.11Z" fill="#E9CC61"/>
<path d="M7.7 81.4601C16.57 81.3201 22.53 69.4501 14.9 63.5801C11.71 61.1701 6.61 61.4501 4.42 65.0301C1.95 68.6101 4 73.7501 8.51 74.0401V74.4601C-0.769995 74.2501 0.610004 61.4101 9.08 60.5101C16.96 59.8401 21.97 68.1301 18.55 75.0101C16.68 79.1801 12.25 81.9301 7.7 81.7001V81.4701V81.4601Z" fill="#E9CC61"/>
<path d="M2.72 78.27C3.92 79.47 5.83 79.82 5.83 79.82L2.72 93.95V78.27Z" fill="#E9CC61"/>
<path d="M428.12 8.31008C436.28 13.2001 440.13 23.2301 437.9 32.3601C437.72 33.1201 437.41 33.9301 437.19 34.6801C436.86 35.3901 436.58 36.2101 436.21 36.8901C435.86 37.6001 435.46 38.2801 435.03 38.9301L439.04 34.9201L440.4 29.9601L445.36 28.6001L445.64 28.3201C449.38 23.0601 448.84 15.5701 444.08 11.1601C442.61 9.69008 440.69 8.71008 438.59 8.28008C438.46 8.25008 438.37 8.12008 438.4 7.99008C438.42 7.87008 438.53 7.79008 438.64 7.79008C440.89 7.79008 443.2 8.67008 444.93 10.2001C448.52 13.1401 450.18 18.1701 449.18 22.6901C448.93 23.8601 448.5 24.9901 447.93 26.0301L450.26 23.7001C450.26 23.7001 450.27 23.6901 450.28 23.6801C454.55 19.2701 455.78 12.7101 454.08 6.89008C454 6.62008 454.42 6.45008 454.54 6.72008C456.62 10.9601 456.11 16.1101 453.79 20.1801L458.12 15.8501L458.68 13.8001L460.73 13.2401L463.93 10.0401C462.5 8.38008 459.33 8.46008 459.09 10.8001C458.67 5.59008 464.7 4.89008 466.78 7.19008C466.83 7.15008 466.89 7.13008 466.95 7.13008C466.95 7.13008 466.96 7.13008 466.97 7.13008C466.99 7.13008 467.02 7.13008 467.04 7.14008C467.07 7.15008 467.09 7.17008 467.12 7.19008C467.15 7.21008 467.16 7.24008 467.17 7.27008C467.17 7.29008 467.18 7.31008 467.18 7.34008C467.18 7.34008 467.18 7.35008 467.18 7.36008C467.18 7.42008 467.16 7.48008 467.12 7.53008C469.42 9.62008 468.72 15.6501 463.51 15.2201C465.85 14.9901 465.93 11.8101 464.27 10.3801L461.07 13.5801L460.51 15.6301L458.46 16.1901L454.13 20.5201C458.19 18.1901 463.35 17.6901 467.59 19.7701C467.85 19.8901 467.69 20.3101 467.42 20.2301C461.61 18.5301 455.04 19.7601 450.63 24.0301C450.63 24.0301 450.62 24.0401 450.61 24.0501L448.28 26.3801C449.32 25.8101 450.44 25.3801 451.62 25.1301C456.13 24.1201 461.16 25.7901 464.11 29.3801C465.65 31.1101 466.52 33.4201 466.52 35.6701C466.52 35.7801 466.44 35.8901 466.32 35.9101C466.19 35.9401 466.06 35.8501 466.03 35.7201C465.6 33.6101 464.62 31.6901 463.15 30.2301C458.74 25.4701 451.25 24.9301 445.99 28.6701L445.71 28.9501L444.35 33.9101L439.39 35.2701L435.38 39.2801C436.04 38.8501 436.72 38.4501 437.42 38.1001C438.1 37.7401 438.93 37.4501 439.63 37.1201C440.38 36.9001 441.19 36.5901 441.95 36.4101C451.08 34.1801 461.11 38.0201 466 46.1901C473.31 58.3301 463.09 76.1401 448.4 71.8901C443.14 70.3601 438.67 65.5301 438.83 59.8601C438.82 56.9101 440.04 54.0201 442.09 51.9301C442.22 51.7301 442.37 51.5401 442.55 51.3701C443.43 50.5601 444.64 50.4301 445.24 51.0901C445.84 51.7501 445.63 52.9401 444.75 53.7501C443.87 54.5601 442.66 54.6901 442.06 54.0301C441.85 53.8101 441.75 53.5201 441.73 53.2101C438.87 57.2201 439.01 62.9901 442.43 66.7201C446.78 71.7601 454.89 72.5801 460.18 68.6201C468.23 62.6701 469.05 50.3701 461.83 43.4201C457.24 38.6101 450.28 36.2801 443.7 37.1901C440.92 37.5801 438.13 38.5001 435.7 39.9201C435.37 40.1201 434.71 40.5401 434.38 40.7401C433.93 41.0501 432.96 41.8001 432.51 42.1401L428.36 46.2901L427.51 49.3801L424.42 50.2301L417.55 57.1001C417.45 57.2001 417.3 57.2001 417.21 57.1001C417.12 57.0001 417.11 56.8501 417.21 56.7601L424.08 49.8901L424.93 46.8001L428.02 45.9501L432.17 41.8001C432.51 41.3401 433.26 40.3801 433.57 39.9301C433.77 39.5901 434.19 38.9401 434.39 38.6101C435.81 36.1801 436.73 33.3901 437.12 30.6101C438.02 24.0301 435.7 17.0801 430.89 12.4801C423.94 5.26008 411.64 6.09008 405.69 14.1301C401.73 19.4301 402.55 27.5301 407.59 31.8801C411.33 35.3001 417.1 35.4401 421.1 32.5801C420.79 32.5601 420.5 32.4501 420.28 32.2501C419.62 31.6401 419.75 30.4401 420.56 29.5601C421.37 28.6801 422.57 28.4601 423.22 29.0701C423.87 29.6801 423.75 30.8801 422.94 31.7601C422.77 31.9501 422.57 32.1001 422.38 32.2201C420.28 34.2701 417.4 35.4901 414.45 35.4801C408.78 35.6401 403.95 31.1601 402.42 25.9101C398.18 11.2201 415.99 0.99008 428.12 8.31008Z" fill="#E9CC61"/>
<path d="M392.86 10.8601C393 19.7301 404.87 25.6901 410.74 18.0601C413.15 14.8701 412.87 9.77007 409.29 7.58007C405.71 5.11007 400.57 7.16007 400.28 11.6701H399.86C400.07 2.39007 412.91 3.77007 413.81 12.2401C414.48 20.1201 406.19 25.1301 399.31 21.7101C395.14 19.8401 392.39 15.4101 392.62 10.8601H392.85H392.86Z" fill="#E9CC61"/>
<path d="M396.04 5.89014C394.84 7.09014 394.49 9.00014 394.49 9.00014L380.36 5.89014H396.04Z" fill="#E9CC61"/>
<path d="M463.45 81.69C456.41 82.15 450.32 75.19 451.69 68.24C452.58 63.54 457.26 59.99 462.07 60.5C470.54 61.4 471.91 74.25 462.64 74.45V74.03C463.69 73.94 464.7 73.6 465.53 73C470.12 69.75 467.12 62.41 461.91 62.02C453.45 61.44 450.15 71.19 455.18 77.25C457.18 79.76 460.25 81.29 463.46 81.45V81.68L463.45 81.69Z" fill="#E9CC61"/>
<path d="M468.43 78.27C467.23 79.47 465.32 79.82 465.32 79.82L468.43 93.95V78.27Z" fill="#E9CC61"/>
<path d="M43.03 469.17C34.87 464.28 31.02 454.25 33.25 445.12C33.43 444.36 33.74 443.55 33.96 442.8C34.29 442.09 34.57 441.27 34.94 440.59C35.29 439.88 35.69 439.2 36.12 438.55L32.11 442.56L30.75 447.52L25.79 448.88L25.51 449.16C21.77 454.42 22.31 461.91 27.07 466.32C28.54 467.79 30.46 468.77 32.56 469.2C32.69 469.23 32.78 469.36 32.75 469.49C32.73 469.61 32.62 469.69 32.51 469.69C30.26 469.69 27.95 468.81 26.22 467.28C22.63 464.34 20.97 459.31 21.97 454.79C22.22 453.62 22.65 452.49 23.22 451.45L20.89 453.78C20.89 453.78 20.88 453.79 20.87 453.8C16.6 458.21 15.37 464.77 17.07 470.59C17.15 470.86 16.73 471.03 16.61 470.76C14.53 466.52 15.04 461.36 17.36 457.3L13.03 461.63L12.47 463.68L10.42 464.24L7.22 467.44C8.65 469.1 11.82 469.02 12.06 466.68C12.48 471.89 6.45 472.59 4.37 470.29C4.32 470.33 4.26 470.35 4.2 470.35C4.2 470.35 4.19 470.35 4.18 470.35C4.16 470.35 4.13 470.35 4.11 470.34C4.08 470.33 4.06 470.31 4.03 470.29C4 470.27 3.99 470.24 3.98 470.21C3.98 470.19 3.97 470.17 3.97 470.14C3.97 470.14 3.97 470.13 3.97 470.12C3.97 470.06 3.99 470 4.03 469.95C1.73 467.86 2.43 461.83 7.64 462.26C5.3 462.49 5.22 465.67 6.88 467.1L10.08 463.9L10.64 461.85L12.69 461.29L17.02 456.96C12.96 459.29 7.8 459.79 3.56 457.71C3.3 457.59 3.46 457.17 3.73 457.25C9.54 458.95 16.11 457.72 20.52 453.45C20.52 453.45 20.53 453.44 20.54 453.43L22.87 451.1C21.83 451.67 20.71 452.1 19.53 452.35C15.02 453.36 9.99 451.69 7.04 448.1C5.5 446.37 4.63 444.06 4.63 441.81C4.63 441.7 4.71 441.59 4.83 441.57C4.96 441.54 5.09 441.63 5.12 441.76C5.55 443.87 6.53 445.79 8 447.25C12.41 452.01 19.9 452.55 25.16 448.81L25.44 448.53L26.8 443.57L31.76 442.21L35.77 438.2C35.11 438.63 34.43 439.03 33.73 439.38C33.05 439.74 32.22 440.03 31.52 440.36C30.77 440.58 29.96 440.89 29.2 441.07C20.07 443.3 10.04 439.46 5.15 431.29C-2.16 419.15 8.06 401.34 22.75 405.59C28.01 407.12 32.48 411.95 32.32 417.62C32.33 420.57 31.11 423.46 29.06 425.55C28.93 425.75 28.78 425.94 28.6 426.11C27.72 426.92 26.51 427.05 25.91 426.39C25.31 425.73 25.52 424.54 26.4 423.73C27.28 422.92 28.49 422.79 29.09 423.45C29.3 423.67 29.4 423.96 29.42 424.27C32.28 420.26 32.14 414.49 28.72 410.76C24.37 405.72 16.26 404.9 10.97 408.86C2.92 414.81 2.1 427.11 9.32 434.06C13.91 438.87 20.87 441.2 27.45 440.29C30.23 439.9 33.02 438.98 35.45 437.56C35.78 437.36 36.44 436.94 36.77 436.74C37.22 436.43 38.19 435.68 38.64 435.34L42.79 431.19L43.64 428.1L46.73 427.25L53.6 420.38C53.7 420.28 53.85 420.28 53.94 420.38C54.03 420.48 54.04 420.63 53.94 420.72L47.07 427.59L46.22 430.68L43.13 431.53L38.98 435.68C38.64 436.14 37.89 437.1 37.58 437.55C37.38 437.89 36.96 438.54 36.76 438.87C35.34 441.3 34.42 444.09 34.03 446.87C33.13 453.45 35.45 460.4 40.26 465C47.21 472.22 59.51 471.39 65.46 463.35C69.42 458.05 68.6 449.95 63.56 445.6C59.82 442.18 54.05 442.04 50.05 444.9C50.36 444.92 50.65 445.03 50.87 445.23C51.53 445.84 51.4 447.04 50.59 447.92C49.78 448.8 48.58 449.02 47.93 448.41C47.28 447.8 47.4 446.6 48.21 445.72C48.38 445.53 48.58 445.38 48.77 445.26C50.87 443.21 53.75 441.99 56.7 442C62.37 441.84 67.2 446.32 68.73 451.57C72.97 466.26 55.16 476.49 43.03 469.17Z" fill="#E9CC61"/>
<path d="M78.3 466.62C78.16 457.75 66.29 451.79 60.42 459.42C58.01 462.61 58.29 467.71 61.87 469.9C65.45 472.37 70.59 470.32 70.88 465.81H71.3C71.09 475.09 58.25 473.71 57.35 465.24C56.68 457.36 64.97 452.35 71.85 455.77C76.02 457.64 78.77 462.07 78.54 466.62H78.31H78.3Z" fill="#E9CC61"/>
<path d="M75.11 471.59C76.31 470.39 76.66 468.48 76.66 468.48L90.79 471.59H75.11Z" fill="#E9CC61"/>
<path d="M7.7 395.79C14.74 395.33 20.83 402.29 19.46 409.24C18.57 413.94 13.89 417.49 9.08 416.98C0.609998 416.08 -0.760002 403.23 8.51 403.03V403.45C7.46 403.54 6.45 403.88 5.62 404.48C1.03 407.73 4.03 415.07 9.24 415.46C17.7 416.04 21 406.29 15.97 400.23C13.97 397.72 10.9 396.19 7.69 396.03V395.8L7.7 395.79Z" fill="#E9CC61"/>
<path d="M2.72 399.21C3.92 398.01 5.83 397.66 5.83 397.66L2.72 383.53V399.21Z" fill="#E9CC61"/>
<path d="M428.12 469.17C436.28 464.28 440.13 454.25 437.9 445.12C437.72 444.36 437.41 443.55 437.19 442.8C436.86 442.09 436.58 441.27 436.21 440.59C435.86 439.88 435.46 439.2 435.03 438.55L439.04 442.56L440.4 447.52L445.36 448.88L445.64 449.16C449.38 454.42 448.84 461.91 444.08 466.32C442.61 467.79 440.69 468.77 438.59 469.2C438.46 469.23 438.37 469.36 438.4 469.49C438.42 469.61 438.53 469.69 438.64 469.69C440.89 469.69 443.2 468.81 444.93 467.28C448.52 464.34 450.18 459.31 449.18 454.79C448.93 453.62 448.5 452.49 447.93 451.45L450.26 453.78C450.26 453.78 450.27 453.79 450.28 453.8C454.55 458.21 455.78 464.77 454.08 470.59C454 470.86 454.42 471.03 454.54 470.76C456.62 466.52 456.11 461.36 453.79 457.3L458.12 461.63L458.68 463.68L460.73 464.24L463.93 467.44C462.5 469.1 459.33 469.02 459.09 466.68C458.67 471.89 464.7 472.59 466.78 470.29C466.83 470.33 466.89 470.35 466.95 470.35C466.95 470.35 466.96 470.35 466.97 470.35C466.99 470.35 467.02 470.35 467.04 470.34C467.07 470.33 467.09 470.31 467.12 470.29C467.15 470.27 467.16 470.24 467.17 470.21C467.17 470.19 467.18 470.17 467.18 470.14C467.18 470.14 467.18 470.13 467.18 470.12C467.18 470.06 467.16 470 467.12 469.95C469.42 467.86 468.72 461.83 463.51 462.26C465.85 462.49 465.93 465.67 464.27 467.1L461.07 463.9L460.51 461.85L458.46 461.29L454.13 456.96C458.19 459.29 463.35 459.79 467.59 457.71C467.85 457.59 467.69 457.17 467.42 457.25C461.61 458.95 455.04 457.72 450.63 453.45C450.63 453.45 450.62 453.44 450.61 453.43L448.28 451.1C449.32 451.67 450.44 452.1 451.62 452.35C456.13 453.36 461.16 451.69 464.11 448.1C465.65 446.37 466.52 444.06 466.52 441.81C466.52 441.7 466.44 441.59 466.32 441.57C466.19 441.54 466.06 441.63 466.03 441.76C465.6 443.87 464.62 445.79 463.15 447.25C458.74 452.01 451.25 452.55 445.99 448.81L445.71 448.53L444.35 443.57L439.39 442.21L435.38 438.2C436.04 438.63 436.72 439.03 437.42 439.38C438.1 439.74 438.93 440.03 439.63 440.36C440.38 440.58 441.19 440.89 441.95 441.07C451.08 443.3 461.11 439.46 466 431.29C473.31 419.15 463.09 401.34 448.4 405.59C443.14 407.12 438.67 411.95 438.83 417.62C438.82 420.57 440.04 423.46 442.09 425.55C442.22 425.75 442.37 425.94 442.55 426.11C443.43 426.92 444.64 427.05 445.24 426.39C445.84 425.73 445.63 424.54 444.75 423.73C443.87 422.92 442.66 422.79 442.06 423.45C441.85 423.67 441.75 423.96 441.73 424.27C438.87 420.26 439.01 414.49 442.43 410.76C446.78 405.72 454.89 404.9 460.18 408.86C468.23 414.81 469.05 427.11 461.83 434.06C457.24 438.87 450.28 441.2 443.7 440.29C440.92 439.9 438.13 438.98 435.7 437.56C435.37 437.36 434.71 436.94 434.38 436.74C433.93 436.43 432.96 435.68 432.51 435.34L428.36 431.19L427.51 428.1L424.42 427.25L417.55 420.38C417.45 420.28 417.3 420.28 417.21 420.38C417.12 420.48 417.11 420.63 417.21 420.72L424.08 427.59L424.93 430.68L428.02 431.53L432.17 435.68C432.51 436.14 433.26 437.1 433.57 437.55C433.77 437.89 434.19 438.54 434.39 438.87C435.81 441.3 436.73 444.09 437.12 446.87C438.02 453.45 435.7 460.4 430.89 465C423.94 472.22 411.64 471.39 405.69 463.35C401.73 458.05 402.55 449.95 407.59 445.6C411.33 442.18 417.1 442.04 421.1 444.9C420.79 444.92 420.5 445.03 420.28 445.23C419.62 445.84 419.75 447.04 420.56 447.92C421.37 448.8 422.57 449.02 423.22 448.41C423.87 447.8 423.75 446.6 422.94 445.72C422.77 445.53 422.57 445.38 422.38 445.26C420.28 443.21 417.4 441.99 414.45 442C408.78 441.84 403.95 446.32 402.42 451.57C398.18 466.26 415.99 476.49 428.12 469.17Z" fill="#E9CC61"/>
<path d="M392.62 466.62C392.16 459.58 399.12 453.49 406.07 454.86C410.77 455.75 414.32 460.43 413.81 465.24C412.91 473.71 400.06 475.08 399.86 465.81H400.28C400.37 466.86 400.71 467.87 401.31 468.7C404.56 473.29 411.9 470.29 412.29 465.08C412.87 456.62 403.12 453.32 397.06 458.35C394.55 460.35 393.02 463.42 392.86 466.63H392.63L392.62 466.62Z" fill="#E9CC61"/>
<path d="M396.04 471.59C394.84 470.39 394.49 468.48 394.49 468.48L380.36 471.59H396.04Z" fill="#E9CC61"/>
<path d="M463.45 396.02C454.58 396.16 448.62 408.03 456.25 413.9C459.44 416.31 464.54 416.03 466.73 412.45C469.2 408.87 467.15 403.73 462.64 403.44V403.02C471.92 403.23 470.54 416.07 462.07 416.97C454.19 417.64 449.18 409.35 452.6 402.47C454.47 398.3 458.9 395.55 463.45 395.78V396.01V396.02Z" fill="#E9CC61"/>
<path d="M468.43 399.21C467.23 398.01 465.32 397.66 465.32 397.66L468.43 383.53V399.21Z" fill="#E9CC61"/>
<path d="M160.82 5.8999H96.48V6.8999H160.82V5.8999Z" fill="#E9CC61"/>
<path d="M374.67 5.8999H310.33V6.8999H374.67V5.8999Z" fill="#E9CC61"/>
<path d="M247.52 467.64C253.49 464.37 248.65 456.39 242.76 458.25C237.24 460.05 236.14 467.3 240.56 470.93C244.65 474.5 250.66 473.51 254.86 470.7C263.35 465.94 275.17 457.59 285.2 460.25C288.56 461.18 291.68 463.84 292.15 467.41C292.93 472.36 287.68 476.44 283.09 474.42C279.84 473.07 278.75 468.02 281.85 465.92C282.79 465.26 284.02 465.02 285.15 465.27C285.3 465.3 285.45 465.21 285.49 465.06C285.52 464.91 285.43 464.76 285.28 464.72C284 464.41 282.6 464.66 281.5 465.39C279.19 466.86 278.72 470.13 279.95 472.46C281.78 476.23 287.12 476.69 290.19 474.23C296.22 469.21 292.22 461.07 285.48 459.29C274.94 456.4 263.18 464.88 254.38 469.87C250.5 472.5 244.92 473.53 241.13 470.25C237.18 467.03 238.12 460.65 243 458.97C248.11 457.27 252.47 464.2 247.29 467.11C246.97 467.27 247.18 467.77 247.53 467.62L247.52 467.64Z" fill="#E9CC61"/>
<path d="M243.55 476.95C250.2 479.18 258.49 473.88 264.4 471.11C267.66 469.46 270.91 467.8 274.25 466.35C280.87 463.49 287.99 461.3 295.26 461.79C298.72 462.02 302.57 462.69 304.92 465.41C306.53 467.29 306.96 470.55 304.96 472.28C303.04 473.95 299.59 473.52 298.45 471.13C297.68 469.64 297.98 467.53 299.47 466.63C299.6 466.55 299.64 466.39 299.56 466.26C299.48 466.13 299.31 466.09 299.18 466.17C298.34 466.68 297.72 467.57 297.53 468.54C296.8 471.64 299.69 474.45 302.76 474C307.41 473.54 308.3 468.02 305.59 464.85C303.06 461.85 298.99 461.11 295.31 460.85C284.11 460.06 273.6 465.32 263.98 470.33C258.32 473.06 250.04 478.46 243.72 476.45C243.58 476.4 243.42 476.47 243.37 476.61C243.32 476.75 243.39 476.9 243.53 476.95H243.55Z" fill="#E9CC61"/>
<path d="M284.65 467.42C285.71 467.42 286.57 466.78 286.57 465.99C286.57 465.2 285.71 464.56 284.65 464.56C283.59 464.56 282.73 465.2 282.73 465.99C282.73 466.78 283.59 467.42 284.65 467.42Z" fill="#E9CC61"/>
<path d="M300.89 466.02C300.46 465.53 299.59 465.59 298.93 466.17C298.27 466.75 298.09 467.6 298.51 468.09C298.94 468.58 299.81 468.52 300.47 467.94C301.13 467.37 301.31 466.51 300.89 466.02Z" fill="#E9CC61"/>
<path d="M240.15 454.42C238.48 454.97 236.82 455.16 235.55 456.63L234.53 455.35C233.45 453.99 233.45 452.06 234.53 450.7L235.55 449.42L236.57 450.7C237.01 451.25 237.26 451.89 237.34 452.55C237.46 452.49 237.58 452.43 237.7 452.39C239.29 451.7 241.58 452.16 242.22 453.94C241.3 454.11 240.7 454.26 240.15 454.41V454.42Z" fill="#E9CC61"/>
<path d="M235.55 460.7L234.47 459.08L235.55 457.45L236.63 459.08L235.55 460.7Z" fill="#E9CC61"/>
<path d="M235.55 476.98L233.93 474.03L235.55 471.08L237.17 474.03L235.55 476.98Z" fill="#E9CC61"/>
<path d="M223.83 467.13C218.63 464.21 223.03 457.28 228.12 458.99C232.98 460.67 233.94 467.05 229.99 470.27C226.19 473.55 220.62 472.52 216.74 469.89C210.37 466.14 204 462.05 196.87 459.8C192.12 458.28 186.48 458.05 182.16 460.93C178.93 463.05 176.95 467.43 178.56 471.16C180.02 474.9 184.69 476.87 188.37 475.18C192.12 473.59 193.22 467.74 189.62 465.41C188.52 464.67 187.11 464.42 185.84 464.74C185.69 464.78 185.6 464.93 185.63 465.08C185.67 465.23 185.82 465.32 185.97 465.29C187.1 465.03 188.33 465.29 189.27 465.94C191.26 467.26 191.59 470.12 190.48 472.12C188.81 475.39 184.16 475.74 181.45 473.56C176.08 469 179.87 461.81 185.91 460.27C191.86 458.62 197.97 461.02 203.35 463.53C207.78 465.64 211.98 468.23 216.25 470.72C220.45 473.53 226.46 474.52 230.55 470.95C234.96 467.32 233.88 460.07 228.35 458.27C222.43 456.41 217.63 464.41 223.59 467.66C223.91 467.81 224.17 467.31 223.83 467.15V467.13Z" fill="#E9CC61"/>
<path d="M227.37 476.44C221.06 478.45 212.76 473.04 207.11 470.32C200.64 466.95 194.02 463.59 186.81 461.85C179.77 459.97 162.78 459.38 164.12 470.35C165.55 476.18 174.68 474.65 173.58 468.53C173.39 467.55 172.77 466.67 171.92 466.16C171.79 466.08 171.63 466.12 171.55 466.25C171.47 466.38 171.51 466.54 171.64 466.62C173.13 467.53 173.43 469.63 172.66 471.12C171.53 473.51 168.07 473.94 166.15 472.27C164.15 470.53 164.58 467.27 166.19 465.4C168.54 462.68 172.39 462.01 175.85 461.78C183.12 461.28 190.24 463.48 196.86 466.34C200.2 467.8 203.45 469.45 206.71 471.1C212.62 473.88 220.91 479.18 227.56 476.94C227.7 476.89 227.77 476.73 227.72 476.59C227.67 476.45 227.51 476.38 227.37 476.43V476.44Z" fill="#E9CC61"/>
<path d="M184.53 465.99C184.53 465.2 185.39 464.56 186.45 464.56C187.51 464.56 188.37 465.2 188.37 465.99C188.37 466.78 187.51 467.42 186.45 467.42C185.39 467.42 184.53 466.78 184.53 465.99Z" fill="#E9CC61"/>
<path d="M170.21 466.02C170.64 465.53 171.51 465.59 172.17 466.17C172.83 466.74 173.01 467.6 172.59 468.09C172.16 468.58 171.29 468.52 170.63 467.94C169.97 467.37 169.79 466.51 170.21 466.02Z" fill="#E9CC61"/>
<path d="M230.95 454.42C232.62 454.97 234.28 455.16 235.55 456.63L236.57 455.35C237.65 453.99 237.65 452.06 236.57 450.7L235.55 449.42L234.53 450.7C234.09 451.25 233.84 451.89 233.76 452.55C233.64 452.49 233.52 452.43 233.4 452.39C231.81 451.7 229.52 452.16 228.88 453.94C229.8 454.11 230.4 454.26 230.95 454.41V454.42Z" fill="#E9CC61"/>
<path d="M235.55 460.7L236.63 459.08L235.55 457.45L234.47 459.08L235.55 460.7Z" fill="#E9CC61"/>
<path d="M235.55 476.98L237.17 474.03L235.55 471.08L233.93 474.03L235.55 476.98Z" fill="#E9CC61"/>
<path d="M235.55 469.83C236.05 467.32 236.04 464.79 235.55 462.28C235.06 464.79 235.05 467.32 235.55 469.83Z" fill="#E9CC61"/>
<path d="M160.82 470.58H96.48V471.58H160.82V470.58Z" fill="#E9CC61"/>
<path d="M374.67 470.58H310.33V471.58H374.67V470.58Z" fill="#E9CC61"/>
</g>
<defs>
<clipPath id="clip0_1_48">
<rect width="471.15" height="477.48" fill="white"/>
</clipPath>
</defs>
</svg>
